<svg width="1512" height="982" viewBox="0 0 1512 982" fill="none" xmlns="http://www.w3.org/2000/svg">
<g clip-path="url(#clip0_1_3)">
<rect width="1512" height="982" fill="white"/>
<path d="M34.6143 747.773C-11.3747 705.478 17.8471 648.882 -62.2471 585.481C-91.6423 562.212 -102.999 563.959 -124.684 542.159C-170.404 496.198 -184.015 423.987 -154.031 380.349C-92.2778 290.469 171.548 296.858 346.122 341.058C384.529 350.783 673.441 423.929 674.087 556.125C674.563 653.768 517.463 720.161 475.861 737.741C329.902 799.426 109.261 816.424 34.6143 747.773Z" fill="#5C7CB6"/>
<path d="M176.214 685.566C256.584 713.815 329.558 701.651 401.68 692.634C439.789 687.869 478.614 686.859 518.493 687.209C559.16 687.565 599.175 686.891 636.108 677.702C761.763 646.441 825.542 503.657 753.661 371.674C710.924 293.206 621.604 257.512 540.786 245.56C379.041 221.643 332.053 171.849 211.719 206.808C99.6167 239.375 -94.8741 306.093 -53.9961 491.84C-38.8431 560.703 108.738 661.846 176.214 685.566Z" fill="#EAEAEA"/>
<path d="M485.618 708.078C457.014 708.078 428.727 703.634 396.172 698.519C357.676 692.471 314.042 685.615 256.21 683.414C196.58 681.148 87.2537 664.81 25.0141 580.883C0.192967 547.412 -15.5547 511.429 -21.7905 473.933C-27.6118 438.939 -24.5941 403.704 -13.0603 372.035C5.50451 321.054 44.1362 282.41 95.712 263.227C131.88 249.775 172.622 244.872 211.254 241.005C258.313 236.297 293.73 230.752 326.099 223.029C330.894 221.884 335.692 220.725 340.497 219.563C405.561 203.842 472.844 187.587 551.412 205.667C588.284 214.153 647.003 240.219 697.528 270.528C732.911 291.754 794.563 333.367 809.927 373.57C826.048 415.759 829.256 455.725 819.462 492.359C811.034 523.873 792.765 553.695 765.158 580.995C716.464 629.148 648.797 661.187 589.024 686.174C549.91 702.529 517.569 708.078 485.618 708.078ZM480.69 199.714C431.235 199.714 385.671 210.722 341.15 221.48C336.341 222.641 331.543 223.8 326.741 224.945C294.25 232.697 258.718 238.259 211.532 242.982C173.081 246.832 132.536 251.706 96.6635 265.048C45.7232 283.994 7.55708 322.195 -10.8039 372.618C-22.2357 404.011 -25.2262 438.948 -19.4525 473.652C-13.2608 510.869 2.37468 546.589 27.0157 579.821C88.6844 662.977 197.148 679.169 256.315 681.421C314.314 683.627 358.029 690.495 396.603 696.556C465.075 707.315 514.548 715.086 587.974 684.39C647.529 659.491 714.938 627.581 763.356 579.704C790.709 552.654 808.809 523.122 817.151 491.923C826.854 455.641 823.666 416.029 807.674 374.184C801.169 357.163 778.03 321.274 696.155 272.157C645.837 241.972 587.417 216.023 550.787 207.595C526.441 201.989 503.163 199.714 480.69 199.714Z" fill="#CDC4B9"/>
<path d="M771.206 245.793C765.242 213.82 702.639 190.815 688.818 185.734C636.675 166.57 585.561 166.424 580.848 166.447C545.227 166.619 530.214 173.846 500.808 165.824C490.192 162.927 477.839 158.082 461.843 159.152C457.823 159.421 441.474 160.514 435.554 168.848C429.081 177.962 438.456 190.99 448.23 198.46C464.997 211.275 484.568 208.986 517.942 215.664C552.415 222.561 546.284 227.957 637.416 261.333C664.595 271.285 685.926 278.42 713.466 280.101C727.386 280.95 746.287 281.92 759.238 273.738C774.211 264.274 771.723 248.573 771.206 245.793Z" fill="#9CB5ED"/>
<path d="M33.4046 591.032C41.9241 591.032 46.2195 595.379 49.6688 598.87C52.9549 602.195 54.8545 603.928 58.8951 603.928C62.9357 603.928 64.8353 602.195 68.1215 598.87C71.5741 595.379 75.8662 591.032 84.3857 591.032C92.9018 591.032 97.1972 595.379 100.65 598.87C103.933 602.195 105.836 603.928 109.876 603.928C113.917 603.928 115.816 602.195 119.103 598.87C122.555 595.379 126.847 591.032 135.367 591.032C143.886 591.032 148.178 595.379 151.631 598.87C154.914 602.195 156.817 603.928 160.857 603.928C163.389 603.928 165.442 605.661 165.442 607.798C165.442 609.935 163.389 611.668 160.857 611.668C152.341 611.668 148.046 607.322 144.593 603.83C141.31 600.505 139.407 598.772 135.367 598.772C131.326 598.772 129.427 600.505 126.14 603.83C122.688 607.322 118.396 611.668 109.876 611.668C101.36 611.668 97.0647 607.322 93.612 603.83C90.3259 600.505 88.4262 598.772 84.3857 598.772C80.3451 598.772 78.4455 600.505 75.1593 603.83C71.7067 607.322 67.4146 611.668 58.8951 611.668C50.3756 611.668 46.0802 607.322 42.6309 603.83C39.3448 600.505 37.4451 598.772 33.4046 598.772C29.364 598.772 27.4609 600.505 24.1782 603.83C20.7255 607.322 16.4301 611.668 7.91399 611.668C5.38227 611.668 3.33313 609.935 3.33313 607.798C3.33313 605.661 5.38567 603.928 7.91399 603.928C11.9546 603.928 13.8576 602.195 17.1403 598.87C20.593 595.379 24.8885 591.032 33.4046 591.032Z" fill="white"/>
<path fill-rule="evenodd" clip-rule="evenodd" d="M182.508 184.094C187.112 184.81 185.32 185.926 189.237 185.161C189.904 185.028 190.116 184.501 190.549 184.114C192.621 182.268 194.665 180.633 196.356 178.503C197.961 176.475 198.998 174.085 200.319 171.874C215.095 147.022 233.124 124.211 254.171 104.023C275.302 83.7513 299.608 66.2921 328.414 53.277C353.732 41.8421 382.285 33.9013 414.615 29.721C435.337 27.041 457.063 25.3804 481.092 26.2008C481.554 26.2474 481.82 25.9671 481.694 25.5752C481.568 25.1834 481.085 24.8241 480.624 24.7739C448.392 19.6011 418.618 17.5348 391.402 19.3751C347.704 22.3296 310.725 34.1157 279.484 51.4864C260.647 61.9673 244.076 74.7637 229.689 89.3205C208.49 110.774 192.149 136.16 179.101 163.272C178.525 164.466 177.797 165.585 177.412 166.882C176.475 170.036 175.935 173.166 175.982 176.702C175.989 177.137 175.916 177.463 176.156 177.933C178.095 181.731 177.588 179.572 180.744 183.117C180.592 183.441 180.864 183.923 181.351 184.197C181.842 184.463 182.356 184.417 182.508 184.094Z" fill="black"/>
<path fill-rule="evenodd" clip-rule="evenodd" d="M184.653 184.037C185.254 165.752 187.497 147.876 189.618 129.98C191.794 111.641 193.775 93.3139 197.244 75.7449C197.174 74.9607 197.405 74.2973 197.031 73.4711C194.741 68.41 193.782 69.5212 189.782 64.7256C189.897 64.3296 189.537 63.7952 188.973 63.5301C188.409 63.265 187.864 63.3697 187.748 63.7657C182.246 64.0675 182.079 62.3831 177.706 64.2781C176.937 64.6106 176.815 65.4031 176.336 65.9925C173.167 73.9963 170.057 82.0321 167.476 90.4208C163.634 102.915 160.514 115.803 158.322 129.084C155.877 143.897 154.892 159.266 154.289 174.629C154.184 178.849 150.072 185.301 150.883 189.294C152.056 195.098 154.95 200.578 160.619 203.099C163.661 204.45 166.565 207.429 170.417 206.737C172.111 205.88 173.905 206.747 177.403 204.564C178.193 204.069 179.689 204.174 181.042 203.855C191.082 201.488 210.15 194.432 230.714 186.178C246.658 179.781 263.887 173.127 277.721 166.756C291.967 160.196 302.659 154.203 307.332 151.908C308.275 151.558 308.356 150.472 307.516 149.481C306.674 148.495 305.223 147.97 304.28 148.321C298.871 149.748 285.731 152.915 269.922 157.656C245.619 164.947 215.142 175.706 192.275 181.861C189.585 182.582 187.038 183.331 184.653 184.037ZM179.592 193.277C178.801 194.913 178.794 196.341 180.724 197.178C182.937 198.145 181.144 195.451 179.592 193.277ZM172.837 187.066C171.953 186.528 171.041 185.935 170.141 185.219C169.291 184.544 168.612 185.791 167.501 184.95C167.064 184.552 166.253 185.187 165.842 185.501C166.042 185.82 166.289 186.961 167.13 187.134C168.771 187.476 170.672 187.41 172.837 187.066Z" fill="black"/>
<path fill-rule="evenodd" clip-rule="evenodd" d="M502.171 898.407C531.687 906.888 562.643 898.946 590.013 882.167C620.678 863.367 646.663 833.427 660.619 804.613C665.005 794.459 668.298 784.163 670.538 773.676C673.772 758.547 675.013 743.228 675.28 727.75C675.399 726.271 674.245 725.149 672.707 725.246C671.169 725.343 669.824 726.621 669.698 728.103C667.889 740.654 665.398 753 661.851 765.131C658.339 777.169 653.705 788.849 647.417 800.122C634.467 825.999 610.645 852.65 582.857 869.403C560.019 883.172 534.354 890.178 509.839 883.49C512.804 877.051 515.295 870.513 517.06 863.895C520.483 851.08 521.272 837.961 517.794 824.593C515.358 815.215 509.255 803.11 500.591 796.484C492.89 790.595 483.367 788.639 472.619 793.658C451.195 803.664 445.627 821.859 449.704 840.903C454.299 862.369 472.012 884.6 487.77 892.84C484.337 898.922 480.618 904.898 476.917 910.763C461.607 935.012 437.881 954.47 410.201 966.108C384.526 976.907 355.458 980.984 326.445 975.987C302.968 972.313 283.409 960.738 267.765 947.424C256.881 938.162 248.121 927.915 241.206 918.418C234.921 909.784 229.963 902.179 227.77 895.375C227.72 895.073 227.415 894.904 227.089 894.996C226.763 895.089 226.543 895.408 226.592 895.711C226.797 903.43 228.568 913.14 233.136 923.424C238.264 934.967 246.744 946.838 257.518 957.578C273.622 973.63 295.62 986.368 321.433 991.265C353.771 996.888 386.189 992.316 414.837 980.318C446.298 967.141 473.212 944.997 490.648 917.471C494.601 911.237 498.534 904.876 502.171 898.407ZM495.448 877.752C497.737 872.598 499.665 867.378 501.068 862.092C503.803 851.784 504.471 841.227 501.655 830.482C500.114 824.608 496.771 817.247 491.918 812.079C488.261 808.18 483.777 805.183 478.059 807.849C465.622 813.636 463.603 824.573 465.954 835.628C469.559 852.62 482.926 870.389 495.448 877.752Z" fill="black"/>
<path fill-rule="evenodd" clip-rule="evenodd" d="M668.227 729.938C669.573 734.688 670.869 739.471 672.248 744.236C673.871 749.827 675.481 755.426 677.358 760.924C682.165 774.975 687.775 788.359 693.182 801.924C693.528 803.266 694.998 803.919 696.454 803.392C697.914 802.864 698.818 801.344 698.472 800.003C696.888 787.536 695.835 775.052 694.1 762.455C693.358 757.1 692.569 751.786 691.451 746.543C688.952 734.805 685.369 723.467 681.789 712.257C681.329 710.898 680.277 708.741 678.894 707.4C677.349 705.895 675.478 705.025 673.553 704.826C671.736 704.635 669.177 704.787 666.304 706.845C665.012 707.771 662.648 710.113 660.093 713.821C651.676 726.042 634.672 757.812 631.019 764.318L624.685 777.421C624.372 778.194 623.779 779.259 623.681 780.501C623.545 782.162 623.41 784.016 623.918 785.058C624.306 785.849 625.392 785.037 624.897 785.529C624.519 785.908 625.645 785.762 625.437 785.523C624.655 784.629 626.588 785.376 626.486 784.772C626.226 783.278 627.543 785.329 628.173 784.219C628.404 783.817 628.411 784.642 628.733 784.278C629.184 783.766 628.79 785.031 629.481 784.623C629.904 784.373 629.28 785.287 629.879 785.087C630.326 784.94 629.149 785.766 629.876 785.656C630.54 785.557 629.338 785.947 629.338 785.947C629.338 785.947 629.917 786.056 628.36 786.067C628.325 785.76 628.03 785.578 627.704 785.654C627.375 785.732 627.139 786.044 627.177 786.349C623.483 788.173 626.809 786.702 625.754 787.867C625.381 788.279 626.157 787.985 625.979 788.35C625.101 790.157 627.205 787.931 627.651 789.113C627.83 789.588 628.038 788.616 628.362 789.024C628.931 789.738 628.442 787.945 629.745 788.312C630.424 788.503 629.403 787.561 630.863 787.382C631.941 787.251 631.066 787.732 632.744 786.471C633.936 785.572 634.933 782.853 635.829 781.874L643.68 769.886C646.778 764.846 659.129 743.861 668.227 729.938Z" fill="black"/>
</g>
<defs>
<clipPath id="clip0_1_3">
<rect width="1512" height="982" fill="white"/>
</clipPath>
</defs>
</svg>
