<svg width="1512" height="982" viewBox="0 0 1512 982" fill="none" xmlns="http://www.w3.org/2000/svg">
<g clip-path="url(#clip0_1_3)">
<rect width="1512" height="982" fill="white"/>
<path d="M34.6143 747.773C-11.3747 705.478 17.8471 648.882 -62.2471 585.481C-91.6423 562.212 -102.999 563.959 -124.684 542.159C-170.404 496.198 -184.015 423.987 -154.031 380.349C-92.2778 290.469 171.548 296.858 346.122 341.058C384.529 350.783 673.441 423.929 674.087 556.125C674.563 653.768 517.463 720.161 475.861 737.741C329.902 799.426 109.261 816.424 34.6143 747.773Z" fill="#5C7CB6"/>
<path d="M176.214 685.566C256.584 713.815 329.558 701.651 401.68 692.634C439.789 687.869 478.614 686.859 518.493 687.209C559.16 687.565 599.175 686.891 636.108 677.702C761.763 646.441 825.542 503.657 753.661 371.674C710.924 293.206 621.604 257.512 540.786 245.56C379.041 221.643 332.053 171.849 211.719 206.808C99.6167 239.375 -94.8741 306.093 -53.9961 491.84C-38.8431 560.703 108.738 661.846 176.214 685.566Z" fill="#EAEAEA"/>
<path d="M485.618 708.078C457.014 708.078 428.727 703.634 396.172 698.519C357.676 692.471 314.042 685.615 256.21 683.414C196.58 681.148 87.2537 664.81 25.0141 580.883C0.192967 547.412 -15.5547 511.429 -21.7905 473.933C-27.6118 438.939 -24.5941 403.704 -13.0603 372.035C5.50451 321.054 44.1362 282.41 95.712 263.227C131.88 249.775 172.622 244.872 211.254 241.005C258.313 236.297 293.73 230.752 326.099 223.029C330.894 221.884 335.692 220.725 340.497 219.563C405.561 203.842 472.844 187.587 551.412 205.667C588.284 214.153 647.003 240.219 697.528 270.528C732.911 291.754 794.563 333.367 809.927 373.57C826.048 415.759 829.256 455.725 819.462 492.359C811.034 523.873 792.765 553.695 765.158 580.995C716.464 629.148 648.797 661.187 589.024 686.174C549.91 702.529 517.569 708.078 485.618 708.078ZM480.69 199.714C431.235 199.714 385.671 210.722 341.15 221.48C336.341 222.641 331.543 223.8 326.741 224.945C294.25 232.697 258.718 238.259 211.532 242.982C173.081 246.832 132.536 251.706 96.6635 265.048C45.7232 283.994 7.55708 322.195 -10.8039 372.618C-22.2357 404.011 -25.2262 438.948 -19.4525 473.652C-13.2608 510.869 2.37468 546.589 27.0157 579.821C88.6844 662.977 197.148 679.169 256.315 681.421C314.314 683.627 358.029 690.495 396.603 696.556C465.075 707.315 514.548 715.086 587.974 684.39C647.529 659.491 714.938 627.581 763.356 579.704C790.709 552.654 808.809 523.122 817.151 491.923C826.854 455.641 823.666 416.029 807.674 374.184C801.169 357.163 778.03 321.274 696.155 272.157C645.837 241.972 587.417 216.023 550.787 207.595C526.441 201.989 503.163 199.714 480.69 199.714Z" fill="#CDC4B9"/>
<path d="M771.206 245.793C765.242 213.82 702.639 190.815 688.818 185.734C636.675 166.57 585.561 166.424 580.848 166.447C545.227 166.619 530.214 173.846 500.808 165.824C490.192 162.927 477.839 158.082 461.843 159.152C457.823 159.421 441.474 160.514 435.554 168.848C429.081 177.962 438.456 190.99 448.23 198.46C464.997 211.275 484.568 208.986 517.942 215.664C552.415 222.561 546.284 227.957 637.416 261.333C664.595 271.285 685.926 278.42 713.466 280.101C727.386 280.95 746.287 281.92 759.238 273.738C774.211 264.274 771.723 248.573 771.206 245.793Z" fill="#9CB5ED"/>
<path d="M33.4046 591.032C41.9241 591.032 46.2195 595.379 49.6688 598.87C52.9549 602.195 54.8545 603.928 58.8951 603.928C62.9357 603.928 64.8353 602.195 68.1215 598.87C71.5741 595.379 75.8662 591.032 84.3857 591.032C92.9018 591.032 97.1972 595.379 100.65 598.87C103.933 602.195 105.836 603.928 109.876 603.928C113.917 603.928 115.816 602.195 119.103 598.87C122.555 595.379 126.847 591.032 135.367 591.032C143.886 591.032 148.178 595.379 151.631 598.87C154.914 602.195 156.817 603.928 160.857 603.928C163.389 603.928 165.442 605.661 165.442 607.798C165.442 609.935 163.389 611.668 160.857 611.668C152.341 611.668 148.046 607.322 144.593 603.83C141.31 600.505 139.407 598.772 135.367 598.772C131.326 598.772 129.427 600.505 126.14 603.83C122.688 607.322 118.396 611.668 109.876 611.668C101.36 611.668 97.0647 607.322 93.612 603.83C90.3259 600.505 88.4262 598.772 84.3857 598.772C80.3451 598.772 78.4455 600.505 75.1593 603.83C71.7067 607.322 67.4146 611.668 58.8951 611.668C50.3756 611.668 46.0802 607.322 42.6309 603.83C39.3448 600.505 37.4451 598.772 33.4046 598.772C29.364 598.772 27.4609 600.505 24.1782 603.83C20.7255 607.322 16.4301 611.668 7.91399 611.668C5.38227 611.668 3.33313 609.935 3.33313 607.798C3.33313 605.661 5.38567 603.928 7.91399 603.928C11.9546 603.928 13.8576 602.195 17.1403 598.87C20.593 595.379 24.8885 591.032 33.4046 591.032Z" fill="white"/>
<path fill-rule="evenodd" clip-rule="evenodd" d="M182.508 184.094C187.112 184.81 185.32 185.926 189.237 185.161C189.904 185.028 190.116 184.501 190.549 184.114C192.621 182.268 194.665 180.633 196.356 178.503C197.961 176.475 198.998 174.085 200.319 171.874C215.095 147.022 233.124 124.211 254.171 104.023C275.302 83.7513 299.608 66.2921 328.414 53.277C353.732 41.8421 382.285 33.9013 414.615 29.721C435.337 27.041 457.063 25.3804 481.092 26.2008C481.554 26.2474 481.82 25.9671 481.694 25.5752C481.568 25.1834 481.085 24.8241 480.624 24.7739C448.392 19.6011 418.618 17.5348 391.402 19.3751C347.704 22.3296 310.725 34.1157 279.484 51.4864C260.647 61.9673 244.076 74.7637 229.689 89.3205C208.49 110.774 192.149 136.16 179.101 163.272C178.525 164.466 177.797 165.585 177.412 166.882C176.475 170.036 175.935 173.166 175.982 176.702C175.989 177.137 175.916 177.463 176.156 177.933C178.095 181.731 177.588 179.572 180.744 183.117C180.592 183.441 180.864 183.923 181.351 184.197C181.842 184.463 182.356 184.417 182.508 184.094Z" fill="black"/>
<path fill-rule="evenodd" clip-rule="evenodd" d="M184.653 184.037C185.254 165.752 187.497 147.876 189.618 129.98C191.794 111.641 193.775 93.3139 197.244 75.7449C197.174 74.9607 197.405 74.2973 197.031 73.4711C194.741 68.41 193.782 69.5212 189.782 64.7256C189.897 64.3296 189.537 63.7952 188.973 63.5301C188.409 63.265 187.864 63.3697 187.748 63.7657C182.246 64.0675 182.079 62.3831 177.706 64.2781C176.937 64.6106 176.815 65.4031 176.336 65.9925C173.167 73.9963 170.057 82.0321 167.476 90.4208C163.634 102.915 160.514 115.803 158.322 129.084C155.877 143.897 154.892 159.266 154.289 174.629C154.184 178.849 150.072 185.301 150.883 189.294C152.056 195.098 154.95 200.578 160.619 203.099C163.661 204.45 166.565 207.429 170.417 206.737C172.111 205.88 173.905 206.747 177.403 204.564C178.193 204.069 179.689 204.174 181.042 203.855C191.082 201.488 210.15 194.432 230.714 186.178C246.658 179.781 263.887 173.127 277.721 166.756C291.967 160.196 302.659 154.203 307.332 151.908C308.275 151.558 308.356 150.472 307.516 149.481C306.674 148.495 305.223 147.97 304.28 148.321C298.871 149.748 285.731 152.915 269.922 157.656C245.619 164.947 215.142 175.706 192.275 181.861C189.585 182.582 187.038 183.331 184.653 184.037ZM179.592 193.277C178.801 194.913 178.794 196.341 180.724 197.178C182.937 198.145 181.144 195.451 179.592 193.277ZM172.837 187.066C171.953 186.528 171.041 185.935 170.141 185.219C169.291 184.544 168.612 185.791 167.501 184.95C167.064 184.552 166.253 185.187 165.842 185.501C166.042 185.82 166.289 186.961 167.13 187.134C168.771 187.476 170.672 187.41 172.837 187.066Z" fill="black"/>
<path fill-rule="evenodd" clip-rule="evenodd" d="M502.171 898.407C531.687 906.888 562.643 898.946 590.013 882.167C620.678 863.367 646.663 833.427 660.619 804.613C665.005 794.459 668.298 784.163 670.538 773.676C673.772 758.547 675.013 743.228 675.28 727.75C675.399 726.271 674.245 725.149 672.707 725.246C671.169 725.343 669.824 726.621 669.698 728.103C667.889 740.654 665.398 753 661.851 765.131C658.339 777.169 653.705 788.849 647.417 800.122C634.467 825.999 610.645 852.65 582.857 869.403C560.019 883.172 534.354 890.178 509.839 883.49C512.804 877.051 515.295 870.513 517.06 863.895C520.483 851.08 521.272 837.961 517.794 824.593C515.358 815.215 509.255 803.11 500.591 796.484C492.89 790.595 483.367 788.639 472.619 793.658C451.195 803.664 445.627 821.859 449.704 840.903C454.299 862.369 472.012 884.6 487.77 892.84C484.337 898.922 480.618 904.898 476.917 910.763C461.607 935.012 437.881 954.47 410.201 966.108C384.526 976.907 355.458 980.984 326.445 975.987C302.968 972.313 283.409 960.738 267.765 947.424C256.881 938.162 248.121 927.915 241.206 918.418C234.921 909.784 229.963 902.179 227.77 895.375C227.72 895.073 227.415 894.904 227.089 894.996C226.763 895.089 226.543 895.408 226.592 895.711C226.797 903.43 228.568 913.14 233.136 923.424C238.264 934.967 246.744 946.838 257.518 957.578C273.622 973.63 295.62 986.368 321.433 991.265C353.771 996.888 386.189 992.316 414.837 980.318C446.298 967.141 473.212 944.997 490.648 917.471C494.601 911.237 498.534 904.876 502.171 898.407ZM495.448 877.752C497.737 872.598 499.665 867.378 501.068 862.092C503.803 851.784 504.471 841.227 501.655 830.482C500.114 824.608 496.771 817.247 491.918 812.079C488.261 808.18 483.777 805.183 478.059 807.849C465.622 813.636 463.603 824.573 465.954 835.628C469.559 852.62 482.926 870.389 495.448 877.752Z" fill="black"/>
<path fill-rule="evenodd" clip-rule="evenodd" d="M668.227 729.938C669.573 734.688 670.869 739.471 672.248 744.236C673.871 749.827 675.481 755.426 677.358 760.924C682.165 774.975 687.775 788.359 693.182 801.924C693.528 803.266 694.998 803.919 696.454 803.392C697.914 802.864 698.818 801.344 698.472 800.003C696.888 787.536 695.835 775.052 694.1 762.455C693.358 757.1 692.569 751.786 691.451 746.543C688.952 734.805 685.369 723.467 681.789 712.257C681.329 710.898 680.277 708.741 678.894 707.4C677.349 705.895 675.478 705.025 673.553 704.826C671.736 704.635 669.177 704.787 666.304 706.845C665.012 707.771 662.648 710.113 660.093 713.821C651.676 726.042 634.672 757.812 631.019 764.318L624.685 777.421C624.372 778.194 623.779 779.259 623.681 780.501C623.545 782.162 623.41 784.016 623.918 785.058C624.306 785.849 625.392 785.037 624.897 785.529C624.519 785.908 625.645 785.762 625.437 785.523C624.655 784.629 626.588 785.376 626.486 784.772C626.226 783.278 627.543 785.329 628.173 784.219C628.404 783.817 628.411 784.642 628.733 784.278C629.184 783.766 628.79 785.031 629.481 784.623C629.904 784.373 629.28 785.287 629.879 785.087C630.326 784.94 629.149 785.766 629.876 785.656C630.54 785.557 629.338 785.947 629.338 785.947C629.338 785.947 629.917 786.056 628.36 786.067C628.325 785.76 628.03 785.578 627.704 785.654C627.375 785.732 627.139 786.044 627.177 786.349C623.483 788.173 626.809 786.702 625.754 787.867C625.381 788.279 626.157 787.985 625.979 788.35C625.101 790.157 627.205 787.931 627.651 789.113C627.83 789.588 628.038 788.616 628.362 789.024C628.931 789.738 628.442 787.945 629.745 788.312C630.424 788.503 629.403 787.561 630.863 787.382C631.941 787.251 631.066 787.732 632.744 786.471C633.936 785.572 634.933 782.853 635.829 781.874L643.68 769.886C646.778 764.846 659.129 743.861 668.227 729.938Z" fill="black"/>
<path d="M1510.66 557.083C1507.5 557.048 1504.36 557.065 1501.22 557.083C1499.26 551.591 1499.5 545.852 1502.75 541.256C1503.2 547.453 1505.99 553.561 1510.66 557.083Z" fill="#68A96A"/>
<path d="M1522.75 557.347C1519.55 557.241 1516.34 557.154 1513.14 557.118C1510.75 555.252 1508.78 553.034 1507.27 550.535C1507.11 549.266 1507.05 547.982 1507.05 546.696C1507.13 546.608 1507.19 546.485 1507.16 546.309C1507.11 546.133 1507.1 545.957 1507.07 545.762C1507.07 545.603 1507.07 545.428 1507.07 545.269C1507.08 545.109 1507.02 545.023 1506.94 544.952C1505.81 538.191 1506.99 531.802 1510.22 526.063C1511.57 537.471 1513.78 550.358 1522.75 557.347Z" fill="#68A96A"/>
<path d="M1544.21 535.5C1546.63 544.267 1543.14 553.474 1536.22 557.929C1537.88 558.035 1539.57 558.122 1541.22 558.245C1541.54 557.805 1542.18 557.594 1542.58 558.086C1544.6 560.568 1544.13 564.442 1541.67 566.324C1541.46 566.483 1541.23 566.466 1541.06 566.324C1540.99 566.342 1540.94 566.377 1540.88 566.377C1540.37 566.395 1539.86 566.413 1539.36 566.413C1539.02 575.708 1538.94 588.241 1534.94 596.534C1531.62 603.382 1525 602.062 1518.86 602.08C1512.72 602.097 1507.45 602.485 1504.49 595.759C1500.86 587.59 1500.3 575.232 1500.13 566.043C1499.29 565.937 1498.44 565.868 1497.61 565.744C1497.31 565.709 1497.11 565.498 1497.03 565.25C1496.95 565.25 1496.87 565.215 1496.81 565.162C1494.69 563.42 1494.66 559.477 1496.91 557.892C1496.91 557.487 1497.13 557.099 1497.61 557.099C1498.4 557.082 1499.18 557.099 1499.95 557.082C1496.76 551.042 1498.41 543.05 1502.93 538.368C1503.43 537.857 1504.34 538.209 1504.31 539.001C1504.2 542.891 1505.03 546.342 1506.59 549.371C1506.4 548.35 1506.28 547.312 1506.28 546.22C1504.55 538.069 1505.77 530.059 1510.05 523.052C1510.55 522.242 1511.49 522.63 1511.6 523.511C1512.1 527.683 1512.68 531.662 1513.53 535.463C1515.31 530.639 1518.69 526.573 1522.55 523.633C1522.93 523.334 1523.43 523.58 1523.67 523.967C1525.71 527.135 1527.39 530.885 1528.05 534.775C1529.46 532.187 1530.64 529.389 1531.53 526.325C1531.75 525.515 1532.76 525.358 1533.16 526.097C1535.64 530.551 1537.31 535.621 1537.41 540.868C1539.11 538.844 1540.88 536.925 1542.74 535.076C1543.24 534.584 1544.02 534.779 1544.21 535.5ZM1534.13 557.805C1540.74 554.055 1544.37 545.534 1542.88 537.577C1539.36 541.15 1536.17 545.007 1533.24 549.196C1531.12 552.259 1529.04 555.286 1526.14 557.434C1528.8 557.54 1531.47 557.663 1534.13 557.805ZM1541.47 564.442C1542.21 563.158 1542.26 561.573 1541.68 560.2C1527.27 560.377 1512.69 559.795 1498.3 558.756C1498.27 558.792 1498.25 558.845 1498.2 558.898C1496.77 560.306 1496.44 562.524 1497.64 564.249C1497.66 564.284 1497.67 564.302 1497.67 564.337C1511.95 563.264 1526.55 564.426 1540.88 564.214C1541.14 564.212 1541.33 564.3 1541.47 564.442ZM1535.02 588.524C1536.35 581.254 1536.99 573.877 1537.29 566.483C1525.35 566.835 1513.06 567.398 1501.18 566.149C1502.34 572.698 1503.04 579.352 1504.12 585.919C1504.5 588.243 1504.64 591.024 1505.54 593.189C1508.73 600.864 1512.47 600.019 1517.58 599.984C1525.7 599.95 1532.92 599.95 1535.02 588.524ZM1533.67 545.622C1534.37 544.637 1535.11 543.668 1535.86 542.718C1535.48 537.754 1534.63 533.317 1532.56 528.952C1529.87 536.979 1525.03 544.196 1518.35 548.704C1519.9 551.485 1521.79 554.108 1524.21 556.574C1524.29 556.662 1524.34 556.766 1524.37 556.873C1524.44 556.766 1524.49 556.662 1524.6 556.591C1528.44 553.685 1530.83 549.565 1533.67 545.622ZM1526.76 536.979C1525.88 532.912 1524.84 529.251 1522.75 525.713C1518.89 528.863 1516.28 532.824 1513.99 537.42C1514.88 540.94 1516.04 544.303 1517.67 547.472C1521.23 544.373 1524.29 540.904 1526.76 536.979ZM1513.14 557.118C1516.34 557.154 1519.55 557.242 1522.75 557.347C1513.78 550.358 1511.57 537.471 1510.22 526.065C1506.99 531.803 1505.81 538.194 1506.94 544.954C1507.02 545.024 1507.08 545.113 1507.07 545.27C1507.07 545.429 1507.07 545.605 1507.07 545.764C1507.1 545.957 1507.11 546.133 1507.16 546.31C1507.19 546.485 1507.13 546.609 1507.05 546.698C1507.05 547.982 1507.11 549.268 1507.27 550.536C1508.78 553.034 1510.75 555.252 1513.14 557.118ZM1501.22 557.083C1504.36 557.065 1507.5 557.048 1510.66 557.083C1505.99 553.563 1503.2 547.453 1502.75 541.257C1499.5 545.851 1499.26 551.591 1501.22 557.083Z" fill="#222221"/>
<path d="M1541.68 560.198C1542.26 561.571 1542.21 563.156 1541.47 564.44C1541.33 564.299 1541.14 564.212 1540.88 564.212C1526.55 564.424 1511.95 563.262 1497.68 564.336C1497.68 564.3 1497.66 564.283 1497.64 564.247C1496.44 562.523 1496.78 560.304 1498.2 558.896C1498.25 558.843 1498.27 558.79 1498.3 558.755C1512.69 559.793 1527.27 560.375 1541.68 560.198Z" fill="#DA9A36"/>
<path d="M1537.29 566.483C1536.99 573.877 1536.35 581.254 1535.02 588.524C1532.92 599.95 1525.7 599.95 1517.58 599.985C1512.47 600.02 1508.73 600.866 1505.54 593.191C1504.65 591.025 1504.5 588.243 1504.12 585.92C1503.04 579.354 1502.34 572.699 1501.18 566.151C1513.06 567.398 1525.35 566.835 1537.29 566.483Z" fill="#DA9A36"/>
<path d="M1588.15 596.992C1589.6 600.795 1589.19 605.671 1586.94 608.98C1586.88 609.069 1586.8 609.139 1586.7 609.191C1586.59 609.596 1586.27 609.913 1585.78 609.93C1582.96 609.948 1580.13 609.983 1577.3 610.001C1581.05 624.63 1581.53 639.999 1582.04 655.104C1582.3 662.832 1582.51 670.578 1583.07 678.289C1583.36 682.356 1586.19 689.943 1583.89 693.305C1583.58 693.746 1582.97 694.098 1582.51 693.711C1582.38 693.604 1582.25 693.5 1582.12 693.394C1579.48 693.817 1576.67 693.711 1574.03 693.675C1573.24 693.657 1572.91 692.9 1573.02 692.249C1572.78 692.883 1571.79 692.743 1571.69 691.915C1568.63 664.664 1566.58 637.359 1563.07 610.16C1532.47 610.512 1501.83 610.988 1471.25 610.776C1468.77 633.309 1466.09 655.808 1463.64 678.323C1463.66 678.376 1463.67 678.411 1463.69 678.464C1464.15 682.126 1463.79 684.854 1462.55 688.322C1462.42 688.657 1462.13 688.885 1461.81 688.973C1462.2 689.414 1462.13 690.171 1461.51 690.364C1460.03 690.84 1458.4 690.592 1456.86 690.681C1455.13 690.787 1453.43 691.05 1451.7 691.209C1451.25 691.262 1450.98 690.928 1450.88 690.523C1450.34 690.647 1449.73 690.312 1449.78 689.52C1451.4 663.518 1452.23 636.285 1456.48 610.636C1453.27 610.583 1450.08 610.547 1446.88 610.477C1446.19 610.459 1446 609.649 1446.28 609.157C1444.84 605.46 1444.38 599.07 1447.25 596.131C1447.7 595.655 1448.66 595.938 1448.61 596.728C1471.38 594.933 1494.59 596.131 1517.41 595.954C1540.38 595.795 1563.34 595.69 1586.32 595.549C1586.82 595.549 1587.14 595.865 1587.28 596.253C1587.63 596.323 1587.99 596.534 1588.15 596.992ZM1585.81 607.678C1586.86 604.369 1587.07 601.411 1586.27 597.961C1563.31 598.05 1540.36 598.156 1517.41 598.19C1494.54 598.225 1471.3 599.651 1448.49 598.048C1448.45 598.048 1448.43 598.031 1448.4 598.031C1448.09 599.421 1447.56 600.742 1447.4 602.203C1447.15 604.457 1447.44 606.569 1447.9 608.77C1493.78 607.273 1539.86 607.871 1585.78 607.678C1585.79 607.678 1585.79 607.678 1585.81 607.678ZM1581.99 691.581C1582.26 691.158 1582.76 691.087 1583.15 691.246C1582.49 688.835 1581.4 683.429 1581.38 683.237C1581.08 679.927 1580.85 676.635 1580.68 673.325C1580.31 666.706 1580.13 660.087 1579.92 653.449C1579.44 638.785 1578.35 624.437 1575.84 610.02C1572.36 610.056 1568.88 610.091 1565.4 610.144C1569.31 637.026 1572.73 664.682 1573.08 691.915C1573.08 691.968 1573.06 692.003 1573.06 692.039C1573.19 691.651 1573.51 691.317 1574.02 691.317C1576.62 691.264 1579.38 691.176 1581.99 691.581ZM1468.93 610.76C1465.11 610.724 1461.3 610.707 1457.48 610.636C1457.35 636.637 1453.93 663.343 1451.78 689.239C1453.32 688.869 1454.92 688.676 1456.49 688.552C1457.85 688.446 1459.36 688.253 1460.72 688.535C1460.67 688.393 1460.64 688.236 1460.66 688.041C1463.57 662.305 1466.12 636.514 1468.93 610.76Z" fill="#222221"/>
<path d="M1586.27 597.96C1587.07 601.411 1586.86 604.369 1585.81 607.677C1585.79 607.677 1585.79 607.677 1585.77 607.677C1539.86 607.869 1493.78 607.272 1447.9 608.768C1447.43 606.568 1447.15 604.455 1447.4 602.202C1447.56 600.741 1448.09 599.421 1448.4 598.029C1448.43 598.029 1448.44 598.047 1448.49 598.047C1471.3 599.649 1494.54 598.222 1517.41 598.188C1540.36 598.154 1563.31 598.048 1586.27 597.96Z" fill="#85603C"/>
<path d="M1457.48 610.636C1461.3 610.707 1465.11 610.724 1468.93 610.76C1466.12 636.515 1463.58 662.305 1460.66 688.043C1460.64 688.237 1460.67 688.395 1460.72 688.536C1459.36 688.255 1457.86 688.448 1456.49 688.554C1454.92 688.678 1453.32 688.871 1451.78 689.24C1453.93 663.343 1457.36 636.637 1457.48 610.636Z" fill="#85603C"/>
<path d="M1451.53 463.655C1454.96 467.651 1456.2 474.094 1453.58 478.918C1453.82 479.586 1453.52 480.556 1452.65 480.589C1424.7 481.698 1395.83 483.336 1367.87 480.519C1367.75 480.642 1367.57 480.729 1367.35 480.747C1318.8 481.927 1270.24 482.102 1221.7 482.613C1197.69 482.859 1173.68 483.089 1149.69 483.317C1125.19 483.545 1100.54 484.743 1076.07 483.793C1075.24 483.758 1075.07 482.684 1075.57 482.226C1075.17 482.19 1074.79 481.891 1074.79 481.309C1074.75 476.627 1074.74 471.909 1075.01 467.227C1075.06 466.311 1076.26 466.311 1076.31 467.227C1076.58 471.909 1076.56 476.627 1076.53 481.309C1076.53 481.608 1076.42 481.838 1076.26 481.996C1100.65 480.517 1125.27 481.186 1149.69 480.887C1173.68 480.605 1197.69 480.324 1221.7 480.059C1270.24 479.512 1318.8 478.668 1367.35 478.792C1367.36 478.792 1367.36 478.81 1367.38 478.81C1395.58 477.929 1423.85 479.425 1452.09 478.281C1453.41 473.705 1453.04 469.091 1449.92 465.43C1449.8 465.288 1449.74 465.166 1449.69 465.025C1387.65 465.729 1325.61 466.151 1263.58 466.679C1201.41 467.207 1139.01 469.459 1076.87 467.717C1076.55 467.717 1076.36 467.489 1076.33 467.224C1076.26 466.872 1076.46 466.466 1076.87 466.449C1080.54 466.29 1084.24 466.168 1087.91 466.044C1085.48 419.04 1087.46 371.738 1087.45 324.699C1087.43 277.59 1086.73 230.497 1086.18 183.389C1086.18 183.037 1086.31 182.773 1086.49 182.596C1086.28 182.016 1086.54 181.241 1087.29 181.223C1145.85 180.238 1204.59 182.826 1263.16 182.895C1321.8 182.966 1380.43 182.191 1439.05 181.487C1439.64 181.487 1439.98 181.892 1440.09 182.386C1440.24 182.492 1440.35 182.667 1440.36 182.913C1441.73 206.433 1440.7 230.409 1440.68 253.964C1440.65 277.079 1440.67 300.193 1440.6 323.29C1440.46 369.836 1440.46 416.365 1440.43 462.892C1443.71 462.874 1447 462.839 1450.27 462.821C1450.67 462.821 1450.94 463.049 1451.09 463.332C1451.24 463.391 1451.39 463.498 1451.53 463.655ZM1438.63 252.246C1438.66 229.607 1437.75 206.598 1439.05 183.995C1380.44 185.314 1321.78 185.456 1263.16 185.367C1204.95 185.261 1146.28 186.512 1088.14 183.255C1088.15 183.308 1088.17 183.344 1088.17 183.397C1088.59 230.505 1089.15 277.598 1089.13 324.707C1089.1 371.815 1088.12 418.89 1089.08 465.999C1147.16 463.851 1205.48 464.819 1263.58 464.345C1321.85 463.851 1380.13 463.271 1438.42 462.919C1438.5 416.373 1438.6 369.844 1438.55 323.3C1438.53 299.618 1438.6 275.923 1438.63 252.246Z" fill="#222221"/>
<path d="M1449.91 465.433C1453.04 469.095 1453.41 473.706 1452.09 478.284C1423.85 479.429 1395.58 477.932 1367.38 478.813C1367.36 478.813 1367.36 478.795 1367.34 478.795C1318.8 478.672 1270.24 479.517 1221.7 480.062C1197.69 480.326 1173.68 480.609 1149.69 480.89C1125.27 481.189 1100.65 480.52 1076.26 481.999C1076.42 481.841 1076.53 481.612 1076.53 481.313C1076.56 476.63 1076.58 471.912 1076.31 467.23H1076.32C1076.35 467.494 1076.55 467.723 1076.87 467.723C1139 469.466 1201.41 467.212 1263.57 466.685C1325.61 466.156 1387.65 465.735 1449.69 465.031C1449.74 465.169 1449.8 465.293 1449.91 465.433Z" fill="#D8D8D8"/>
<path d="M1439.05 183.993C1437.75 206.597 1438.66 229.605 1438.63 252.244C1438.6 275.921 1438.53 299.618 1438.55 323.295C1438.6 369.841 1438.5 416.37 1438.42 462.914C1380.13 463.266 1321.85 463.846 1263.57 464.34C1205.48 464.816 1147.16 463.846 1089.08 465.994C1088.12 418.885 1089.1 371.81 1089.13 324.702C1089.14 277.593 1088.58 230.501 1088.17 183.392C1088.17 183.339 1088.15 183.303 1088.13 183.25C1146.28 186.507 1204.95 185.256 1263.16 185.363C1321.78 185.456 1380.44 185.314 1439.05 183.993ZM1424.99 447.372C1425.47 447.108 1425.54 446.491 1425.31 446.035C1423.26 425.718 1423.63 405.14 1423.42 384.72C1423.25 366.34 1423.04 347.961 1422.86 329.601C1423.07 329.284 1423.05 328.826 1422.85 328.474C1422.85 327.155 1422.83 325.816 1422.81 324.478C1422.43 283.637 1422.81 242.672 1421.6 201.847C1421.56 200.897 1420.38 200.861 1420.2 201.688C1420.04 201.442 1419.77 201.265 1419.38 201.265C1367.7 201.493 1316.01 201.776 1264.31 202.022C1238.16 202.146 1211.99 202.268 1185.82 202.409C1173 202.48 1160.19 202.551 1147.37 202.621C1133.6 202.692 1119.42 201.707 1105.72 203.29C1105.62 203.308 1105.59 203.361 1105.51 203.396C1104.98 202.728 1103.62 202.973 1103.56 204.171C1102.1 227.549 1102.19 251.051 1102.82 274.447C1103.4 296.541 1103.01 319.074 1104.5 341.133C1104.31 341.274 1104.18 341.502 1104.18 341.854C1104.36 360.656 1104.53 379.457 1104.73 398.259C1104.9 414.843 1102.8 433.731 1106.34 449.928C1106.42 450.227 1106.66 450.368 1106.92 450.368C1106.79 450.913 1107.05 451.566 1107.72 451.583C1159.9 452.287 1212.2 450.651 1264.38 450.14C1315.9 449.646 1367.48 449.294 1418.99 447.975C1419.18 447.957 1419.32 447.904 1419.45 447.799C1419.53 448.045 1419.71 448.258 1420 448.328C1421.72 448.674 1423.47 448.269 1424.99 447.372Z" fill="#D8D8D8"/>
<path d="M1425.31 446.033C1425.54 446.491 1425.47 447.107 1424.99 447.37C1423.47 448.269 1421.72 448.672 1419.99 448.32C1419.7 448.25 1419.53 448.039 1419.45 447.791C1419.32 447.898 1419.18 447.951 1418.98 447.967C1367.48 449.286 1315.9 449.638 1264.38 450.132C1212.2 450.643 1159.9 452.279 1107.72 451.575C1107.05 451.558 1106.79 450.907 1106.92 450.36C1106.66 450.36 1106.42 450.219 1106.34 449.92C1102.8 433.723 1104.9 414.835 1104.72 398.251C1104.53 379.449 1104.35 360.648 1104.18 341.846C1104.18 341.494 1104.31 341.266 1104.5 341.125C1103.01 319.066 1103.39 296.533 1102.82 274.439C1102.19 251.043 1102.09 227.541 1103.55 204.163C1103.62 202.965 1104.98 202.719 1105.51 203.388C1105.59 203.353 1105.62 203.3 1105.72 203.282C1119.42 201.697 1133.6 202.684 1147.37 202.613C1160.19 202.543 1173 202.472 1185.82 202.401C1211.99 202.26 1238.16 202.138 1264.31 202.014C1316.01 201.768 1367.7 201.485 1419.38 201.257C1419.77 201.257 1420.04 201.434 1420.2 201.679C1420.38 200.852 1421.56 200.887 1421.59 201.839C1422.81 242.662 1422.43 283.627 1422.81 324.47C1422.83 325.808 1422.84 327.147 1422.84 328.466C1423.05 328.818 1423.07 329.276 1422.86 329.593C1423.04 347.955 1423.24 366.334 1423.42 384.711C1423.63 405.139 1423.26 425.718 1425.31 446.033ZM1423.44 445.523C1421.35 424.804 1421.8 403.837 1421.56 383.011C1421.36 365.318 1421.16 347.627 1420.97 329.934C1418.21 329.916 1415.46 329.863 1412.7 329.828C1412.44 347.169 1412.3 364.508 1412.36 381.866C1412.41 398.802 1413.61 416.002 1412.88 432.9C1413.53 433.498 1413.31 435.012 1412.2 435.048C1388.77 435.858 1365.34 436.316 1341.9 436.385C1319.84 436.438 1296.49 438.462 1274.63 435.188C1274.27 435.135 1274.18 434.8 1274.28 434.484C1274.12 434.324 1274.01 434.096 1274.01 433.797C1273.91 416.704 1274.04 399.609 1273.85 382.516C1273.66 365.668 1272.5 348.522 1273.32 331.71C1270.31 331.569 1267.31 331.305 1264.33 330.847C1264.41 349.614 1264.59 368.379 1264.86 387.145C1265.13 407.072 1266.86 427.512 1265.74 447.386C1316.8 446.682 1367.91 445.855 1418.98 445.961C1419.03 445.961 1419.06 445.978 1419.11 445.996C1419.16 445.961 1419.19 445.89 1419.26 445.89C1420.63 445.612 1422.04 445.559 1423.44 445.523ZM1420.94 327.997C1420.92 326.817 1420.92 325.655 1420.91 324.477C1420.42 284.18 1418.79 243.585 1420.14 203.306C1419.96 203.499 1419.72 203.641 1419.38 203.641C1368.08 203.869 1316.77 204.081 1265.45 204.292C1265.55 204.467 1265.63 204.661 1265.61 204.907C1264.63 245.396 1264.18 285.905 1264.3 326.394C1264.3 327.397 1264.31 328.4 1264.31 329.387C1290.34 330.302 1316.28 327.698 1342.31 327.081C1368.45 326.447 1394.81 326.148 1420.94 327.997ZM1410.26 347.009C1410.31 341.271 1410.34 335.531 1410.42 329.792C1399.54 329.617 1388.68 329.405 1377.81 329.264C1383.74 331.905 1384.21 340.794 1383.1 347.079C1392.12 347.378 1401.13 347.466 1410.22 346.99C1410.23 346.992 1410.25 347.009 1410.26 347.009ZM1411.42 432.672C1409.83 415.931 1410.39 398.678 1410.26 381.866C1410.17 371.005 1410.18 360.124 1410.25 349.263C1410.23 349.263 1410.23 349.281 1410.21 349.281C1395.23 350.003 1380.05 350.038 1365.15 347.873C1364.32 361.586 1366.27 375.335 1365.18 388.997C1365.18 389.032 1365.15 389.068 1365.15 389.121C1365.18 389.49 1364.96 389.913 1364.52 389.966C1361.48 390.336 1354.67 392.906 1353.63 388.364C1352.84 384.914 1353.59 380.108 1353.66 376.586C1353.71 372.413 1353.74 368.242 1353.98 364.087C1340.93 364.632 1327.84 365.196 1314.8 364.95C1314.81 366.816 1314.68 368.7 1314.38 370.531C1314.19 371.728 1314.01 372.82 1312.9 373.312C1311.75 373.839 1310.15 373.575 1308.93 373.505C1307.33 373.434 1305.71 373.259 1304.17 372.765C1304.07 373.381 1303 373.328 1303.08 372.606C1303.13 372.113 1303.16 371.621 1303.17 371.145C1302.77 371.304 1302.23 371.056 1302.18 370.405C1301.86 366.303 1302.61 361.78 1302.9 357.66C1302.9 357.59 1302.95 357.554 1302.97 357.483C1302.98 356.498 1303.02 355.511 1303.1 354.526C1293.99 355.881 1284.67 355.828 1275.63 353.857C1275.85 363.434 1275.77 373.046 1275.87 382.517C1276.04 399.593 1276.2 416.706 1275.85 433.799C1275.83 433.834 1275.82 433.87 1275.82 433.905C1287.05 432.902 1298.67 434.011 1309.94 434.116C1321.12 434.222 1332.31 434.239 1343.5 434.169C1366.14 433.992 1388.79 433.482 1411.42 432.672ZM1381.5 347.045C1381.8 340.742 1382.78 331.887 1375.49 329.952C1375.12 329.863 1375.01 329.546 1375.07 329.23C1369.97 329.177 1364.86 329.141 1359.76 329.141C1359.73 329.177 1359.72 329.212 1359.67 329.23C1357.99 330.18 1356.5 330.779 1355.2 332.398C1354.04 333.859 1353.37 335.549 1353.02 337.415C1353.02 337.556 1352.99 337.678 1352.94 337.802C1352.92 337.873 1352.9 337.926 1352.9 337.995C1352.81 338.593 1352.07 338.54 1351.86 338.083C1351.81 338.03 1351.77 337.977 1351.73 337.891C1349.78 333.436 1345.4 329.248 1340.69 331.606C1335.34 334.264 1336.41 340.707 1337.69 345.619C1337.71 345.672 1337.69 345.707 1337.69 345.761C1337.73 345.849 1337.79 345.92 1337.82 346.006C1337.95 346.429 1337.45 346.887 1337.1 346.622C1336.21 345.9 1335.53 345.09 1334.38 344.844C1333.24 344.616 1332.01 344.844 1331.09 345.654C1329.17 347.361 1329.36 350.848 1331.04 352.643C1341.51 350.654 1352.34 350.6 1362.94 350.707C1363.11 350.707 1363.24 350.795 1363.35 350.883C1363.39 349.757 1363.42 348.63 1363.48 347.485C1363.48 347.415 1363.51 347.362 1363.53 347.308C1363.4 346.868 1363.64 346.252 1364.14 346.27C1369.94 346.551 1375.73 346.833 1381.5 347.045ZM1363.9 388.555C1363.68 376.496 1362.99 364.26 1363.31 352.168C1363.21 352.238 1363.08 352.291 1362.94 352.291C1352.27 352.01 1341.7 352.925 1331.08 353.241C1330.95 353.417 1330.74 353.523 1330.55 353.365C1330.52 353.33 1330.49 353.294 1330.45 353.259C1330.2 353.277 1329.93 353.277 1329.67 353.294C1329.46 353.294 1329.41 352.942 1329.62 352.907C1329.75 352.872 1329.89 352.854 1330.02 352.819C1328 350.636 1327.81 346.815 1330.07 344.667C1331.42 343.365 1333.98 342.978 1335.84 343.84C1333.8 339.104 1335.15 332.819 1339.53 330.178C1340.2 329.773 1340.87 329.492 1341.54 329.315C1341.29 329.315 1341.02 329.333 1340.74 329.333C1327.17 329.632 1313.6 330.125 1300.04 330.882C1291.49 331.358 1282.9 332.044 1274.35 331.728C1275.08 338.717 1275.44 345.777 1275.61 352.888C1284.87 353.574 1293.96 353.873 1303.26 353.222C1303.3 353.222 1303.37 353.24 1303.42 353.258C1303.69 353.098 1304.07 353.222 1304.12 353.68C1304.71 359.719 1303.67 365.721 1304.12 371.743C1306.36 371.672 1308.61 371.9 1310.85 371.761C1312.79 371.619 1312.78 370.352 1313.02 368.451C1313.19 367.06 1313.27 365.652 1313.35 364.243C1313.39 363.503 1314.12 363.31 1314.54 363.627C1327.82 362.624 1341.21 362.447 1354.52 362.237C1355.33 362.219 1355.53 363.24 1355.13 363.768C1355.41 369.42 1355.34 375.123 1355.31 380.775C1355.29 382.429 1354.99 384.384 1355.26 386.022C1355.7 388.68 1356 388.574 1357.89 388.908C1359.72 389.207 1361.95 388.714 1363.9 388.555ZM1352.11 335.391C1352.68 332.98 1354.08 330.62 1355.94 329.177C1352.17 329.194 1348.39 329.194 1344.62 329.265C1347.67 329.898 1350.41 332.416 1352.11 335.391ZM1264.38 447.423C1264.51 447.406 1264.65 447.406 1264.78 447.406C1262.42 427.107 1263.22 405.86 1262.84 385.403C1262.49 365.739 1262.31 346.076 1262.26 326.393C1262.13 285.903 1262.55 245.395 1263.5 204.906C1263.5 204.66 1263.58 204.465 1263.67 204.29C1261.2 204.308 1258.74 204.325 1256.27 204.325C1256.27 204.378 1256.3 204.431 1256.3 204.484C1255.93 245.044 1255.6 285.604 1255.53 326.182C1255.47 366.567 1256.62 407.127 1255.63 447.51C1258.54 447.476 1261.46 447.459 1264.38 447.423ZM1254.18 204.486C1254.18 204.433 1254.2 204.398 1254.22 204.345C1231.41 204.433 1208.62 204.555 1185.82 204.626C1172.47 204.679 1159.12 204.732 1145.77 204.785C1132.53 204.838 1118.91 205.876 1105.73 204.486C1104.1 227.811 1104.27 251.085 1104.83 274.446C1105.27 292.561 1106.72 311.203 1106.42 329.529C1130.86 328.966 1155.38 330.04 1179.84 329.863C1204.39 329.704 1228.93 329.301 1253.48 328.754C1253.48 327.891 1253.48 327.029 1253.48 326.184C1253.53 285.606 1253.69 245.046 1254.18 204.486ZM1254.22 447.529C1252.65 408.712 1253.37 369.613 1253.46 330.742C1251.06 330.813 1248.62 330.902 1246.22 330.971C1246.54 348.487 1245.95 366.091 1245.88 383.607C1245.8 401.318 1246.52 419.186 1245.74 436.861C1245.72 437.388 1245.35 437.636 1245 437.6C1244.97 438.181 1244.62 438.745 1243.94 438.745C1222.9 439.256 1201.86 439.343 1180.83 439.221C1159.87 439.097 1138.6 439.608 1117.72 437.671C1117.48 437.636 1117.32 437.494 1117.22 437.319C1116.74 437.443 1116.13 437.162 1116.1 436.421C1114.32 401.776 1114.21 365.916 1115.62 331.234C1112.54 331.057 1109.46 330.865 1106.4 330.654C1106.31 334.579 1106.18 338.471 1105.89 342.343C1106.21 378.01 1105.01 414.169 1107.48 449.712C1107.56 449.695 1107.62 449.659 1107.72 449.659C1156.49 447.846 1205.42 448.076 1254.22 447.529ZM1243.94 436.316C1244.09 436.316 1244.2 436.351 1244.31 436.387C1243.27 418.906 1243.82 401.143 1243.8 383.609C1243.77 366.128 1243.42 348.506 1244.1 331.043C1233.7 331.377 1223.24 331.694 1212.77 331.959C1212.39 342.751 1212.64 353.436 1212.61 364.228C1212.61 364.563 1212.42 364.704 1212.21 364.722C1212.2 365.127 1211.96 365.549 1211.49 365.602C1207.47 366.043 1203.46 366.131 1199.44 365.848C1199.05 365.813 1198.67 365.496 1198.69 365.038C1198.88 361.359 1198.96 357.644 1199.39 354C1184.69 353.754 1169.98 353.754 1155.3 353.05C1155.32 353.121 1155.33 353.174 1155.35 353.243C1155.96 365.302 1156.38 378.364 1154.56 390.3C1154.52 390.653 1154.13 390.582 1154.02 390.336C1153.99 390.582 1153.83 390.829 1153.55 390.882C1150.72 391.411 1147.78 391.516 1144.92 391.287C1144.85 391.305 1144.82 391.287 1144.76 391.287C1144.69 391.27 1144.63 391.27 1144.58 391.27C1144.08 391.217 1143.92 390.654 1144.1 390.302C1143.31 387.063 1143.35 383.278 1143.6 379.915C1143.54 379.95 1143.46 379.986 1143.38 379.986C1134.77 380.989 1125.81 380.796 1117.18 380.162C1117.19 381.166 1117.18 382.17 1117.19 383.173C1117.35 400.901 1118.15 418.663 1117.85 436.374C1138.8 435.635 1159.87 436.885 1180.83 436.919C1201.86 436.967 1222.9 436.668 1243.94 436.316ZM1211.49 363.91C1211.52 363.91 1211.56 363.928 1211.6 363.928C1210.35 353.418 1210.5 342.555 1211.2 331.993C1192.44 332.451 1173.61 332.715 1154.84 332.486C1157.21 334.616 1158.59 338.331 1158.06 341.57C1158.03 341.798 1157.9 341.94 1157.74 342.028C1157.87 342.539 1157.63 343.19 1157 343.208C1143.67 343.454 1130.3 343.771 1116.98 343.42C1117.17 355.286 1117.1 367.186 1117.17 379.052C1125.89 378.877 1134.66 378.489 1143.38 378.594C1143.52 378.594 1143.63 378.647 1143.73 378.717C1143.84 378.137 1144.61 378.119 1144.64 378.77C1144.84 382.468 1145.38 386.304 1145.38 390.002C1148.06 390.019 1150.7 389.809 1153.38 389.42C1153.65 389.384 1153.84 389.561 1153.94 389.772C1153.04 377.784 1153.7 365.267 1153.84 353.243C1153.86 352.803 1154.1 352.557 1154.39 352.486C1154.31 352.081 1154.5 351.623 1154.99 351.605C1169.8 351.395 1184.64 351.869 1199.47 352.116C1199.71 352.134 1199.9 352.24 1200.03 352.38C1200.2 352.451 1200.36 352.59 1200.38 352.803C1200.6 356.606 1200.35 360.443 1200.2 364.246C1203.97 364.402 1207.72 364.315 1211.49 363.91ZM1156.7 341.358C1157.18 336.587 1153.83 333.154 1149.79 332.573C1149.61 332.556 1149.49 332.485 1149.37 332.414C1138.44 332.221 1127.54 331.868 1116.68 331.287C1116.81 334.931 1116.89 338.575 1116.95 342.237C1130.19 341.551 1143.46 341.515 1156.71 341.427C1156.71 341.411 1156.7 341.393 1156.7 341.358Z" fill="#222221"/>
<path d="M1421.56 383.011C1421.8 403.837 1421.36 424.804 1423.44 445.523C1422.04 445.559 1420.63 445.612 1419.26 445.893C1419.19 445.893 1419.16 445.964 1419.11 445.999C1419.06 445.982 1419.03 445.964 1418.98 445.964C1367.91 445.858 1316.8 446.686 1265.74 447.39C1266.86 427.514 1265.13 407.076 1264.86 387.148C1264.59 368.382 1264.41 349.615 1264.33 330.85C1267.31 331.308 1270.31 331.572 1273.32 331.713C1272.5 348.525 1273.66 365.672 1273.85 382.519C1274.04 399.612 1273.91 416.707 1274.01 433.801C1274.01 434.099 1274.12 434.329 1274.28 434.487C1274.18 434.804 1274.27 435.138 1274.63 435.191C1296.49 438.465 1319.84 436.44 1341.9 436.388C1365.34 436.318 1388.77 435.86 1412.2 435.051C1413.31 435.016 1413.53 433.502 1412.88 432.904C1413.61 416.003 1412.41 398.804 1412.36 381.87C1412.3 364.511 1412.44 347.172 1412.7 329.831C1415.46 329.866 1418.21 329.919 1420.97 329.937C1421.16 347.625 1421.36 365.318 1421.56 383.011Z" fill="#F5F5F5"/>
<path d="M1420.91 324.477C1420.92 325.657 1420.92 326.819 1420.94 327.997C1394.81 326.148 1368.45 326.447 1342.31 327.081C1316.29 327.696 1290.34 330.302 1264.31 329.387C1264.31 328.402 1264.3 327.397 1264.3 326.394C1264.18 285.905 1264.63 245.396 1265.61 204.907C1265.63 204.661 1265.55 204.467 1265.45 204.292C1316.77 204.081 1368.08 203.869 1419.38 203.641C1419.72 203.641 1419.96 203.499 1420.14 203.306C1418.79 243.585 1420.42 284.18 1420.91 324.477ZM1410.2 312.312C1411.43 296.503 1410.25 280.167 1409.73 264.34C1409.22 248.338 1408.55 232.37 1407.63 216.403C1407.57 215.4 1406.59 215.101 1406 215.453C1405.94 215.453 1405.89 215.436 1405.82 215.436C1384.21 216.915 1362.57 217.707 1340.9 217.725C1319.25 217.742 1297.63 215.982 1276 215.876C1275.66 215.876 1275.45 216.069 1275.36 216.317C1274.78 216.053 1273.93 216.387 1273.88 217.284C1273 232.564 1272.55 247.846 1272.55 263.144C1272.21 263.567 1272.28 264.147 1272.55 264.499C1272.55 265.679 1272.53 266.841 1272.53 268.019C1272.65 283.634 1272.23 300.111 1274.91 315.48C1274.99 315.92 1275.47 315.885 1275.68 315.586C1275.79 315.85 1276.01 316.08 1276.38 316.097C1298.43 317.682 1320.82 316.766 1342.91 316.467C1365.09 316.15 1387.25 315.568 1409.41 314.479C1410.44 314.426 1410.7 313.088 1410.17 312.453C1410.18 312.4 1410.2 312.365 1410.2 312.312Z" fill="#F5F5F5"/>
<path d="M1409.73 264.34C1410.25 280.167 1411.43 296.503 1410.2 312.312C1410.2 312.365 1410.18 312.4 1410.17 312.453C1410.7 313.087 1410.44 314.426 1409.41 314.479C1387.25 315.57 1365.09 316.15 1342.91 316.467C1320.82 316.766 1298.43 317.682 1276.38 316.097C1276.01 316.08 1275.79 315.851 1275.68 315.586C1275.47 315.885 1274.99 315.92 1274.91 315.48C1272.23 300.111 1272.65 283.634 1272.53 268.019C1272.53 266.84 1272.55 265.677 1272.55 264.499C1272.28 264.147 1272.21 263.567 1272.55 263.144C1272.55 247.846 1273 232.566 1273.88 217.284C1273.93 216.386 1274.78 216.051 1275.36 216.317C1275.45 216.071 1275.66 215.876 1276 215.876C1297.63 215.982 1319.25 217.742 1340.9 217.725C1362.57 217.707 1384.21 216.915 1405.82 215.436C1405.89 215.436 1405.94 215.454 1406 215.454C1406.59 215.102 1407.57 215.4 1407.63 216.404C1408.55 232.37 1409.22 248.338 1409.73 264.34ZM1408.95 312.153C1407.59 296.361 1408.23 280.2 1407.75 264.34C1407.68 262.157 1407.59 259.974 1407.53 257.809C1387.51 258.143 1367.27 257.809 1347.33 255.662C1346.91 255.608 1346.74 255.168 1346.82 254.834C1345.18 252.509 1345.97 248.936 1348.15 247.282C1350.41 245.54 1353.49 246.12 1355.52 248.004C1352.7 232.724 1375.15 228.92 1382.96 240.047C1383.31 235.805 1386.02 231.878 1389.61 229.872C1393.01 228.006 1396.97 227.778 1400.65 228.358C1402.59 228.675 1404.85 228.869 1406.29 230.189C1406.09 226.14 1405.88 222.108 1405.65 218.077C1362.99 220.946 1318.52 223.129 1276 217.461C1275.97 217.461 1275.93 217.444 1275.89 217.426C1275.01 232.249 1274.52 247.089 1274.49 261.929C1280.73 259.341 1291.78 263.514 1291.19 271.347C1296.34 267.034 1303.11 265.943 1309.17 268.969C1314.59 271.699 1318.98 277.772 1317.25 284.391C1320.01 281.38 1324.8 281.732 1327.54 284.69C1330.15 287.541 1330.63 292.647 1327.28 295.042C1327.23 295.077 1327.19 295.095 1327.12 295.112C1327.03 295.358 1326.82 295.571 1326.5 295.588C1309.62 296.609 1292.41 296.926 1275.57 295.307C1275.82 301.732 1275.98 308.158 1275.77 314.548C1275.92 314.389 1276.11 314.266 1276.38 314.249C1298.52 313.403 1320.76 314.408 1342.91 314.09C1364.93 313.773 1386.95 313.034 1408.95 312.153ZM1347.73 254.446C1367.65 255.044 1387.51 255.907 1407.44 255.837C1407.17 248.267 1406.82 240.696 1406.44 233.127C1406.16 233.109 1405.91 232.968 1405.76 232.669C1404.64 230.398 1399.32 230.24 1397.46 230.24C1395.09 230.24 1392.81 230.645 1390.66 231.79C1386.59 233.99 1384.32 238.232 1384.54 243.074C1384.7 243.461 1384.85 243.884 1384.96 244.307C1385.23 245.257 1383.85 245.909 1383.48 244.993C1381.29 239.412 1377.01 236.209 1371.54 235.504C1363.85 234.537 1355.2 239.711 1356.9 249.553C1356.95 249.835 1356.82 250.011 1356.64 250.118C1356.4 250.47 1355.89 250.629 1355.55 250.241C1353.96 248.446 1351.5 247.091 1349.28 248.534C1347.44 249.711 1346.93 252.37 1347.73 254.446ZM1326.62 293.95C1328.96 291.732 1328.31 287.842 1326.14 285.746C1323.42 283.087 1320.28 284.143 1317.57 286.08C1317.2 286.344 1316.72 286.063 1316.58 285.658C1316.18 285.781 1315.68 285.447 1315.79 284.83C1317.33 277.383 1311.77 271.644 1305.74 269.866C1300.34 268.264 1295.04 270.254 1290.82 274.021C1290.02 274.743 1288.87 273.563 1289.65 272.755C1289.7 272.702 1289.73 272.666 1289.78 272.631C1290.52 264.938 1279.97 261.365 1274.49 264.11C1274.49 264.85 1274.48 265.589 1274.48 266.328C1274.51 275.536 1275.1 284.812 1275.5 294.072C1292.54 294.318 1309.46 294.706 1326.5 293.931C1326.54 293.915 1326.57 293.933 1326.62 293.95Z" fill="#222221"/>
<path d="M1410.42 329.792C1410.34 335.531 1410.31 341.271 1410.26 347.01C1410.25 347.01 1410.23 346.992 1410.22 346.992C1401.13 347.468 1392.12 347.379 1383.1 347.08C1384.21 340.795 1383.74 331.905 1377.81 329.265C1388.68 329.405 1399.54 329.617 1410.42 329.792Z" fill="#B2D7E8"/>
<path d="M1410.26 381.866C1410.39 398.678 1409.83 415.931 1411.42 432.672C1388.79 433.482 1366.15 433.992 1343.5 434.169C1332.31 434.239 1321.13 434.222 1309.94 434.116C1298.68 434.009 1287.06 432.9 1275.82 433.905C1275.82 433.87 1275.84 433.834 1275.85 433.799C1276.21 416.706 1276.05 399.593 1275.87 382.517C1275.77 373.046 1275.85 363.434 1275.63 353.857C1284.67 355.829 1294 355.881 1303.1 354.526C1303.02 355.511 1302.99 356.498 1302.97 357.483C1302.95 357.554 1302.91 357.59 1302.91 357.66C1302.62 361.78 1301.86 366.303 1302.18 370.406C1302.23 371.057 1302.78 371.304 1303.18 371.145C1303.16 371.621 1303.13 372.113 1303.08 372.606C1303 373.328 1304.07 373.381 1304.17 372.765C1305.71 373.259 1307.33 373.434 1308.93 373.505C1310.15 373.575 1311.75 373.839 1312.91 373.312C1314.01 372.818 1314.19 371.727 1314.38 370.531C1314.69 368.7 1314.81 366.816 1314.8 364.95C1327.84 365.196 1340.94 364.633 1353.98 364.087C1353.74 368.242 1353.71 372.413 1353.66 376.586C1353.6 380.106 1352.84 384.912 1353.63 388.364C1354.67 392.906 1361.48 390.336 1364.53 389.966C1364.96 389.913 1365.18 389.49 1365.15 389.121C1365.15 389.068 1365.18 389.032 1365.18 388.997C1366.27 375.335 1364.32 361.587 1365.15 347.873C1380.06 350.038 1395.23 350.003 1410.22 349.281C1410.23 349.281 1410.23 349.263 1410.25 349.263C1410.18 360.124 1410.17 371.003 1410.26 381.866Z" fill="#8CC5DF"/>
<path d="M1407.75 264.34C1408.23 280.202 1407.59 296.363 1408.95 312.153C1386.94 313.033 1364.92 313.773 1342.9 314.09C1320.76 314.406 1298.51 313.403 1276.38 314.249C1276.11 314.266 1275.91 314.39 1275.77 314.548C1275.98 308.157 1275.82 301.732 1275.56 295.307C1292.41 296.926 1309.62 296.609 1326.49 295.588C1326.81 295.57 1327.02 295.36 1327.12 295.112C1327.18 295.095 1327.23 295.077 1327.28 295.042C1330.63 292.647 1330.15 287.543 1327.54 284.69C1324.8 281.732 1320 281.38 1317.25 284.391C1318.98 277.772 1314.59 271.699 1309.17 268.969C1303.11 265.941 1296.33 267.032 1291.19 271.347C1291.78 263.512 1280.72 259.341 1274.49 261.929C1274.52 247.089 1275 232.248 1275.88 217.426C1275.93 217.443 1275.96 217.461 1276 217.461C1318.51 223.129 1362.99 220.946 1405.65 218.077C1405.87 222.108 1406.08 226.14 1406.29 230.189C1404.85 228.869 1402.59 228.675 1400.65 228.358C1396.96 227.778 1393 228.006 1389.61 229.872C1386.02 231.878 1383.31 235.805 1382.96 240.047C1375.15 228.92 1352.7 232.724 1355.52 248.004C1353.48 246.12 1350.41 245.54 1348.15 247.282C1345.97 248.936 1345.18 252.511 1346.82 254.834C1346.74 255.168 1346.91 255.608 1347.33 255.661C1367.26 257.809 1387.51 258.143 1407.52 257.809C1407.59 259.974 1407.68 262.157 1407.75 264.34Z" fill="#B2D7E8"/>
<path d="M1407.44 255.837C1387.51 255.907 1367.65 255.044 1347.73 254.446C1346.93 252.369 1347.44 249.711 1349.28 248.531C1351.49 247.088 1353.96 248.443 1355.55 250.238C1355.89 250.625 1356.4 250.466 1356.64 250.114C1356.81 250.008 1356.94 249.833 1356.9 249.55C1355.2 239.709 1363.85 234.534 1371.54 235.501C1377.01 236.205 1381.29 239.409 1383.48 244.99C1383.85 245.904 1385.23 245.253 1384.96 244.303C1384.84 243.881 1384.7 243.458 1384.54 243.071C1384.32 238.229 1386.59 233.987 1390.66 231.786C1392.81 230.642 1395.09 230.237 1397.46 230.237C1399.32 230.237 1404.64 230.396 1405.76 232.666C1405.91 232.965 1406.16 233.106 1406.43 233.124C1406.82 240.698 1407.17 248.267 1407.44 255.837Z" fill="white"/>
<path d="M1375.49 329.952C1382.78 331.889 1381.8 340.744 1381.5 347.045C1375.73 346.833 1369.94 346.551 1364.14 346.27C1363.64 346.252 1363.4 346.868 1363.53 347.308C1363.52 347.362 1363.48 347.415 1363.48 347.485C1363.42 348.63 1363.39 349.757 1363.35 350.883C1363.24 350.795 1363.11 350.707 1362.94 350.707C1352.34 350.6 1341.51 350.654 1331.05 352.644C1329.36 350.848 1329.17 347.362 1331.09 345.654C1332.01 344.844 1333.24 344.616 1334.38 344.844C1335.53 345.09 1336.21 345.9 1337.1 346.622C1337.46 346.886 1337.95 346.429 1337.82 346.006C1337.79 345.918 1337.73 345.847 1337.7 345.761C1337.7 345.708 1337.71 345.672 1337.7 345.619C1336.41 340.707 1335.34 334.264 1340.69 331.606C1345.41 329.248 1349.78 333.436 1351.74 337.891C1351.77 337.979 1351.82 338.032 1351.86 338.084C1352.07 338.542 1352.81 338.595 1352.91 337.995C1352.91 337.924 1352.92 337.871 1352.94 337.802C1352.99 337.678 1353.02 337.556 1353.02 337.415C1353.37 335.549 1354.04 333.859 1355.2 332.398C1356.5 330.778 1357.99 330.18 1359.67 329.23C1359.72 329.212 1359.73 329.177 1359.77 329.141C1364.86 329.141 1369.97 329.177 1375.07 329.23C1375.01 329.547 1375.12 329.863 1375.49 329.952Z" fill="white"/>
<path d="M1363.31 352.168C1362.99 364.262 1363.68 376.496 1363.9 388.555C1361.95 388.714 1359.72 389.206 1357.89 388.907C1356 388.573 1355.7 388.679 1355.26 386.02C1354.99 384.384 1355.29 382.429 1355.31 380.773C1355.34 375.122 1355.41 369.419 1355.13 363.767C1355.53 363.24 1355.33 362.217 1354.52 362.235C1341.21 362.447 1327.82 362.622 1314.54 363.625C1314.12 363.309 1313.38 363.502 1313.35 364.241C1313.27 365.649 1313.19 367.057 1313.02 368.449C1312.78 370.351 1312.79 371.617 1310.85 371.759C1308.61 371.9 1306.36 371.671 1304.12 371.741C1303.67 365.72 1304.71 359.718 1304.12 353.679C1304.07 353.221 1303.69 353.098 1303.42 353.256C1303.37 353.238 1303.3 353.221 1303.26 353.221C1293.96 353.872 1284.87 353.573 1275.61 352.886C1275.44 345.773 1275.08 338.715 1274.35 331.726C1282.9 332.043 1291.49 331.356 1300.04 330.881C1313.59 330.124 1327.17 329.63 1340.74 329.331C1341.02 329.331 1341.29 329.313 1341.54 329.313C1340.87 329.489 1340.2 329.772 1339.53 330.177C1335.15 332.818 1333.8 339.103 1335.84 343.838C1333.98 342.975 1331.42 343.362 1330.07 344.666C1327.81 346.813 1328 350.634 1330.02 352.817C1329.89 352.852 1329.75 352.87 1329.62 352.906C1329.41 352.941 1329.46 353.293 1329.67 353.293C1329.92 353.275 1330.2 353.275 1330.45 353.258C1330.49 353.293 1330.52 353.328 1330.55 353.364C1330.74 353.523 1330.95 353.417 1331.08 353.24C1341.7 352.923 1352.27 352.007 1362.94 352.29C1363.08 352.291 1363.21 352.238 1363.31 352.168Z" fill="#B2D7E8"/>
<path d="M1355.94 329.177C1354.08 330.62 1352.68 332.98 1352.11 335.391C1350.41 332.416 1347.67 329.899 1344.62 329.265C1348.39 329.194 1352.17 329.194 1355.94 329.177Z" fill="#B2D7E8"/>
<path d="M1326.14 285.746C1328.31 287.84 1328.96 291.732 1326.62 293.95C1326.57 293.933 1326.54 293.915 1326.49 293.933C1309.46 294.707 1292.53 294.32 1275.5 294.074C1275.1 284.814 1274.5 275.537 1274.47 266.33C1274.47 265.591 1274.49 264.851 1274.49 264.112C1279.97 261.365 1290.51 264.939 1289.78 272.633C1289.73 272.668 1289.7 272.703 1289.65 272.756C1288.86 273.567 1290.02 274.746 1290.82 274.023C1295.03 270.255 1300.34 268.267 1305.74 269.868C1311.76 271.646 1317.32 277.384 1315.79 284.831C1315.67 285.447 1316.17 285.781 1316.57 285.659C1316.72 286.064 1317.2 286.346 1317.57 286.082C1320.28 284.145 1323.42 283.089 1326.14 285.746Z" fill="white"/>
<path d="M1264.78 447.407C1264.65 447.407 1264.51 447.407 1264.38 447.425C1261.46 447.46 1258.54 447.478 1255.63 447.513C1256.62 407.129 1255.47 366.569 1255.53 326.185C1255.59 285.608 1255.93 245.048 1256.3 204.488C1256.3 204.435 1256.27 204.382 1256.27 204.329C1258.74 204.329 1261.2 204.311 1263.67 204.293C1263.58 204.468 1263.49 204.663 1263.49 204.909C1262.55 245.398 1262.13 285.907 1262.26 326.396C1262.31 346.077 1262.49 365.741 1262.84 385.406C1263.22 405.86 1262.42 427.109 1264.78 447.407Z" fill="#F5F5F5"/>
<path d="M1254.22 204.345C1254.2 204.398 1254.18 204.433 1254.18 204.486C1253.69 245.046 1253.53 285.606 1253.48 326.184C1253.48 327.029 1253.48 327.891 1253.48 328.754C1228.93 329.301 1204.39 329.704 1179.84 329.863C1155.38 330.038 1130.86 328.965 1106.42 329.529C1106.72 311.203 1105.27 292.56 1104.83 274.446C1104.27 251.085 1104.1 227.811 1105.73 204.486C1118.9 205.876 1132.53 204.838 1145.77 204.785C1159.12 204.732 1172.47 204.679 1185.82 204.626C1208.62 204.555 1231.41 204.433 1254.22 204.345ZM1243.57 219.273C1244.63 218.744 1244.54 216.702 1243.21 216.86C1222.08 219.377 1200.59 218.164 1179.37 218.04C1158.28 217.898 1136.33 215.857 1115.32 218.181C1115.12 218.199 1115 218.287 1114.92 218.41C1114.5 218.516 1114.15 218.868 1114.18 219.483C1115.91 251.664 1115.25 284.196 1117.59 316.272C1117.62 316.642 1117.82 316.888 1118.06 316.976C1117.93 317.329 1118.07 317.769 1118.52 317.822C1138.92 319.671 1159.97 318.068 1180.43 318.015C1201.06 317.944 1221.7 318.033 1242.32 317.84C1243.17 317.822 1243.48 316.941 1243.27 316.272C1243.35 316.166 1243.4 316.026 1243.41 315.832C1244.42 283.95 1243.4 251.805 1243.73 219.888C1243.74 219.625 1243.67 219.432 1243.57 219.273Z" fill="#F5F5F5"/>
<path d="M1253.46 330.742C1253.37 369.613 1252.65 408.712 1254.22 447.529C1205.42 448.076 1156.49 447.846 1107.72 449.659C1107.62 449.659 1107.56 449.695 1107.48 449.712C1105.01 414.169 1106.22 378.01 1105.9 342.343C1106.18 338.471 1106.31 334.579 1106.41 330.654C1109.47 330.866 1112.55 331.059 1115.62 331.234C1114.21 365.914 1114.32 401.774 1116.1 436.421C1116.14 437.16 1116.74 437.441 1117.23 437.319C1117.32 437.494 1117.48 437.636 1117.72 437.671C1138.6 439.608 1159.87 439.097 1180.83 439.221C1201.86 439.344 1222.9 439.256 1243.94 438.745C1244.62 438.745 1244.97 438.182 1245 437.6C1245.36 437.636 1245.72 437.388 1245.74 436.861C1246.53 419.186 1245.8 401.318 1245.89 383.607C1245.95 366.091 1246.54 348.487 1246.22 330.971C1248.62 330.902 1251.06 330.813 1253.46 330.742Z" fill="#F5F5F5"/>
<path d="M1244.31 436.387C1244.2 436.351 1244.09 436.316 1243.94 436.316C1222.9 436.668 1201.86 436.967 1180.83 436.914C1159.87 436.879 1138.79 435.63 1117.85 436.369C1118.15 418.659 1117.35 400.897 1117.19 383.168C1117.17 382.165 1117.19 381.161 1117.17 380.158C1125.81 380.791 1134.77 380.986 1143.38 379.981C1143.46 379.981 1143.54 379.946 1143.6 379.91C1143.34 383.273 1143.31 387.057 1144.1 390.297C1143.92 390.649 1144.08 391.214 1144.58 391.265C1144.63 391.265 1144.69 391.265 1144.76 391.283C1144.82 391.283 1144.85 391.3 1144.92 391.283C1147.78 391.511 1150.72 391.406 1153.55 390.878C1153.83 390.825 1153.99 390.579 1154.02 390.331C1154.13 390.577 1154.52 390.648 1154.56 390.296C1156.37 378.361 1155.96 365.297 1155.35 353.238C1155.33 353.168 1155.32 353.114 1155.3 353.045C1169.98 353.749 1184.69 353.749 1199.39 353.995C1198.96 357.639 1198.88 361.354 1198.68 365.033C1198.67 365.492 1199.05 365.808 1199.44 365.844C1203.46 366.125 1207.47 366.037 1211.49 365.598C1211.95 365.545 1212.19 365.122 1212.21 364.717C1212.42 364.699 1212.61 364.559 1212.61 364.223C1212.64 353.431 1212.39 342.747 1212.77 331.954C1223.24 331.691 1233.7 331.374 1244.1 331.038C1243.41 348.501 1243.77 366.123 1243.8 383.604C1243.82 401.143 1243.27 418.906 1244.31 436.387Z" fill="#8CC5DF"/>
<path d="M1243.21 216.862C1244.54 216.704 1244.63 218.745 1243.57 219.274C1243.67 219.432 1243.74 219.626 1243.74 219.89C1243.4 251.807 1244.42 283.952 1243.42 315.834C1243.4 316.026 1243.35 316.168 1243.27 316.274C1243.48 316.943 1243.18 317.824 1242.33 317.841C1221.7 318.034 1201.06 317.947 1180.43 318.016C1159.97 318.07 1138.93 319.67 1118.52 317.824C1118.07 317.771 1117.93 317.33 1118.06 316.978C1117.82 316.89 1117.63 316.644 1117.59 316.274C1115.25 284.2 1115.91 251.665 1114.18 219.485C1114.15 218.869 1114.5 218.517 1114.92 218.411C1115 218.287 1115.12 218.201 1115.32 218.183C1136.33 215.859 1158.28 217.902 1179.38 218.041C1200.59 218.164 1222.08 219.379 1243.21 216.862ZM1180.43 315.885C1200.96 315.797 1221.48 315.533 1242 315.568C1241.46 307.999 1241.09 300.359 1240.88 292.701C1236.09 293.264 1231.09 293.106 1226.3 292.719C1225.5 292.648 1225.37 291.504 1225.96 291.187C1223.75 287.472 1223.16 282.033 1226.78 279.057C1228.73 277.455 1231.86 277.579 1233.51 279.48C1234.26 276.1 1237.34 273.476 1240.6 273.583C1240.55 255.608 1241.09 237.599 1241.6 219.89C1241.62 219.748 1241.65 219.644 1241.69 219.538C1221.06 221.845 1200.08 220.629 1179.38 220.453C1158.6 220.295 1136.97 221.949 1116.3 219.503C1117.83 246.912 1120.05 275.167 1119.52 302.841C1125.81 301.926 1131.9 308.07 1132.19 314.935C1132.21 315.358 1131.87 315.604 1131.55 315.604C1131.3 315.604 1131.05 315.445 1130.99 315.11C1129.9 308.703 1125.21 304.847 1119.49 304.424C1119.4 308.385 1119.25 312.345 1119.04 316.272C1119.02 316.379 1119 316.465 1118.97 316.554C1123.14 316.149 1127.34 315.885 1131.55 315.726C1147.79 315.11 1164.29 315.973 1180.43 315.885ZM1240.84 291.38C1240.69 286.098 1240.63 280.8 1240.61 275.483C1237.34 275.412 1234.76 278.44 1234.62 281.978C1234.6 282.7 1233.54 282.928 1233.43 282.153C1233.43 282.136 1233.43 282.118 1233.42 282.083C1233.37 282.03 1233.3 281.977 1233.27 281.907C1231.62 279.143 1228.5 279.003 1226.77 281.801C1225 284.635 1225.93 288.086 1227.18 290.92C1227.21 290.991 1227.21 291.044 1227.23 291.113C1231.75 291.152 1236.31 291.099 1240.84 291.38Z" fill="#222221"/>
<path d="M1242 315.568C1221.48 315.533 1200.96 315.797 1180.43 315.885C1164.29 315.973 1147.79 315.11 1131.55 315.726V315.602C1131.87 315.602 1132.21 315.356 1132.19 314.933C1131.9 308.068 1125.81 301.925 1119.52 302.839C1120.04 275.166 1117.83 246.911 1116.3 219.501C1136.97 221.947 1158.6 220.293 1179.38 220.451C1200.08 220.628 1221.06 221.841 1241.69 219.536C1241.65 219.642 1241.62 219.748 1241.6 219.888C1241.09 237.599 1240.55 255.607 1240.6 273.581C1237.34 273.475 1234.26 276.098 1233.51 279.479C1231.86 277.577 1228.73 277.453 1226.78 279.056C1223.16 282.031 1223.75 287.471 1225.96 291.185C1225.37 291.502 1225.5 292.647 1226.3 292.717C1231.09 293.105 1236.09 293.262 1240.88 292.7C1241.09 300.357 1241.46 307.999 1242 315.568ZM1197.03 259.727C1197.93 257.333 1196.47 254.287 1194.71 252.879C1193.04 251.542 1190.83 251.312 1188.96 252.14C1190 249.341 1187.74 245.345 1185.49 244.165C1182.05 242.387 1178.07 244.745 1176.47 248.267C1175.93 229.923 1145.17 230.909 1143.3 249.746C1141.28 247.951 1137.66 247.792 1135.65 249.06C1132.72 250.908 1131.5 255.661 1133.39 258.794C1133.25 258.794 1133.11 258.794 1132.96 258.812C1132.67 258.812 1132.69 259.235 1132.96 259.27C1133.22 259.305 1133.47 259.323 1133.75 259.359C1133.89 259.482 1134.08 259.482 1134.24 259.412C1154.53 261.665 1175.51 261.594 1195.86 260.89C1196.26 260.873 1196.47 260.556 1196.5 260.222C1196.71 260.167 1196.92 260.027 1197.03 259.727Z" fill="#B2D7E8"/>
<path d="M1240.61 275.483C1240.63 280.8 1240.69 286.098 1240.83 291.38C1236.31 291.099 1231.75 291.152 1227.23 291.116C1227.21 291.046 1227.21 290.993 1227.18 290.923C1225.93 288.09 1225 284.638 1226.76 281.805C1228.49 279.006 1231.62 279.146 1233.27 281.911C1233.3 281.981 1233.37 282.034 1233.41 282.086C1233.43 282.121 1233.43 282.139 1233.43 282.157C1233.54 282.931 1234.6 282.703 1234.61 281.981C1234.76 278.44 1237.34 275.413 1240.61 275.483Z" fill="white"/>
<path d="M1211.6 363.928C1211.55 363.928 1211.52 363.91 1211.49 363.91C1207.72 364.315 1203.97 364.403 1200.21 364.244C1200.35 360.441 1200.61 356.604 1200.38 352.801C1200.37 352.59 1200.21 352.449 1200.03 352.378C1199.9 352.237 1199.71 352.132 1199.47 352.115C1184.65 351.869 1169.81 351.393 1155 351.604C1154.5 351.621 1154.31 352.079 1154.39 352.484C1154.1 352.555 1153.86 352.801 1153.85 353.241C1153.7 365.265 1153.04 377.782 1153.94 389.77C1153.85 389.56 1153.65 389.383 1153.38 389.418C1150.71 389.805 1148.06 390.016 1145.38 390C1145.38 386.303 1144.84 382.466 1144.65 378.769C1144.62 378.118 1143.85 378.136 1143.73 378.716C1143.64 378.645 1143.53 378.592 1143.38 378.592C1134.66 378.486 1125.9 378.873 1117.18 379.05C1117.1 367.184 1117.18 355.285 1116.99 343.419C1130.31 343.771 1143.67 343.454 1157.01 343.206C1157.63 343.189 1157.87 342.538 1157.74 342.027C1157.9 341.938 1158.03 341.798 1158.06 341.568C1158.59 338.329 1157.21 334.615 1154.84 332.485C1173.61 332.713 1192.44 332.449 1211.21 331.991C1210.5 342.555 1210.35 353.417 1211.6 363.928Z" fill="#B2D7E8"/>
<path d="M1194.71 252.879C1196.47 254.287 1197.93 257.333 1197.03 259.727C1196.92 260.026 1196.71 260.167 1196.51 260.22C1196.47 260.555 1196.27 260.871 1195.87 260.889C1175.51 261.593 1154.53 261.664 1134.24 259.41C1134.08 259.481 1133.89 259.481 1133.75 259.357C1133.48 259.322 1133.22 259.304 1132.96 259.269C1132.69 259.233 1132.67 258.81 1132.96 258.81C1133.11 258.793 1133.25 258.793 1133.4 258.793C1131.51 255.66 1132.72 250.907 1135.66 249.058C1137.66 247.79 1141.28 247.949 1143.3 249.745C1145.17 230.907 1175.93 229.922 1176.47 248.266C1178.08 244.746 1182.05 242.386 1185.5 244.164C1187.74 245.343 1190 249.34 1188.96 252.138C1190.83 251.312 1193.04 251.542 1194.71 252.879ZM1195.62 259.392C1195.43 257.333 1195.32 255.502 1193.62 254.163C1192.02 252.897 1190.08 252.966 1188.32 253.776C1188.11 253.864 1187.95 253.811 1187.84 253.67C1187.45 253.882 1187.02 253.617 1187.1 253.09C1187.59 250.273 1187.59 247.192 1184.76 245.766C1181.41 244.077 1178.17 247.034 1176.67 250.097C1176.62 250.22 1176.52 250.273 1176.41 250.29C1176.3 251.24 1175 251.257 1174.98 250.236C1174.92 240.044 1165.83 235.853 1157.8 237.051C1150.56 238.142 1145.27 243.44 1144.45 251.363C1144.56 251.662 1144.66 251.961 1144.71 252.296C1144.79 252.807 1144.4 253.123 1144 253C1143.68 253.157 1143.23 252.982 1143.22 252.453C1143.2 252.4 1143.22 252.365 1143.22 252.312C1142.43 251.484 1141.77 250.64 1140.64 250.217C1139.29 249.688 1137.69 249.724 1136.44 250.516C1133.7 252.223 1133.58 255.816 1134.59 258.685C1134.61 258.72 1134.59 258.756 1134.61 258.791C1154.92 258.513 1175.3 259.288 1195.62 259.392Z" fill="#222221"/>
<path d="M1193.62 254.165C1195.32 255.502 1195.43 257.333 1195.62 259.394C1175.3 259.288 1154.92 258.513 1134.61 258.796C1134.6 258.761 1134.61 258.725 1134.6 258.69C1133.59 255.821 1133.7 252.23 1136.44 250.521C1137.69 249.729 1139.29 249.693 1140.64 250.222C1141.78 250.645 1142.43 251.489 1143.22 252.316C1143.22 252.37 1143.2 252.405 1143.22 252.458C1143.23 252.985 1143.68 253.162 1144 253.004C1144.4 253.128 1144.79 252.81 1144.71 252.3C1144.66 251.966 1144.56 251.667 1144.45 251.368C1145.27 243.447 1150.56 238.147 1157.8 237.056C1165.83 235.858 1174.92 240.049 1174.98 250.241C1175 251.262 1176.3 251.244 1176.41 250.294C1176.52 250.277 1176.62 250.224 1176.67 250.101C1178.17 247.038 1181.41 244.082 1184.76 245.771C1187.6 247.197 1187.6 250.278 1187.1 253.094C1187.02 253.623 1187.45 253.887 1187.84 253.675C1187.95 253.816 1188.11 253.868 1188.32 253.781C1190.08 252.967 1192.02 252.897 1193.62 254.165Z" fill="white"/>
<path d="M1149.79 332.573C1153.83 333.154 1157.18 336.587 1156.7 341.358C1156.7 341.393 1156.71 341.411 1156.71 341.429C1143.46 341.517 1130.19 341.552 1116.95 342.239C1116.89 338.577 1116.81 334.933 1116.68 331.289C1127.54 331.869 1138.44 332.221 1149.37 332.416C1149.49 332.486 1149.61 332.556 1149.79 332.573Z" fill="white"/>
<path d="M1131.55 315.604V315.728C1127.34 315.887 1123.14 316.15 1118.97 316.555C1119 316.467 1119.02 316.38 1119.04 316.274C1119.24 312.349 1119.4 308.386 1119.49 304.426C1125.21 304.849 1129.9 308.703 1130.99 315.112C1131.05 315.445 1131.29 315.604 1131.55 315.604Z" fill="white"/>
<path d="M1037.18 404.271C1040.95 405.291 1042.28 410.749 1040.13 414.235C1039.74 414.851 1039.09 414.815 1038.65 414.463C1038.57 414.534 1038.49 414.587 1038.38 414.622C1019.87 420.661 1000.05 424.341 980.142 425.079C981.744 447.436 981.055 470.217 981.232 492.608C981.393 514.684 981.44 536.759 981.408 558.835C981.36 599.818 980.943 640.801 980.43 681.783C989.389 681.431 1014.6 682.47 1010.98 695.197C1010.82 695.76 1010.43 695.955 1010.06 695.901C1005.61 704.193 994.629 703.683 986.936 703.754C974.1 703.877 959.819 702.609 947.624 697.821C943.986 696.395 939.306 693.596 941.822 688.56C943.696 684.793 949.754 683.349 953.04 682.311C958.921 680.444 964.898 679.634 970.989 680.11C971.197 638.935 971.39 597.757 971.325 556.599C971.261 512.8 969.85 469 970.027 425.218C951.693 424.973 933.472 422.103 916.323 416.135C915.698 415.924 915.73 415.132 916.131 414.815C914.416 412.615 914.61 408.76 916.996 407.14C917.397 406.876 917.782 407.069 917.99 407.386C918.006 407.403 918.022 407.403 918.038 407.403C917.974 407.227 917.974 407.034 918.103 406.841C936.596 379.854 946.87 349.011 951.357 315.774C950.155 315.369 949.337 313.908 949.193 312.571C948.985 310.704 949.946 308.574 951.677 308.081C951.758 308.046 951.838 308.046 951.917 308.046C951.949 307.658 952.189 307.271 952.671 307.271C969.771 307.096 986.87 307.534 1003.95 307.253C1004.1 307.253 1004.21 307.289 1004.31 307.324C1004.47 307.271 1004.63 307.253 1004.81 307.306C1006.46 307.8 1006.87 310.528 1006.68 312.112C1006.47 313.627 1005.75 314.946 1004.6 315.739C1004.95 315.932 1005.22 316.285 1005.25 316.813C1007.21 349.908 1019.04 377.441 1036.94 403.584C1037.05 403.759 1037.08 403.936 1037.05 404.095C1037.1 404.147 1037.15 404.2 1037.18 404.271ZM1038.68 412.544C1039.84 409.903 1038.81 407.545 1036.79 406.031C1036.73 406.066 1036.68 406.101 1036.62 406.137C999.389 418.406 955.381 421.91 917.911 408.496C916.421 410.151 916.052 412.563 917.445 414.483C917.542 414.606 917.574 414.746 917.574 414.888C937.446 419.499 956.999 423.074 977.432 422.687C997.929 422.299 1018.16 418.708 1037.82 412.388C1038.17 412.263 1038.46 412.351 1038.68 412.544ZM1035.46 404.007C1015.43 381.138 1004.72 348.114 1002.85 316.883C986.407 316.126 969.997 316.303 953.537 316.002C949.482 348.94 939.065 382.071 919.225 407.633C938.601 411.436 957.447 414.921 977.256 414.376C997.032 413.812 1016.54 410.204 1035.46 404.007ZM1008.81 693.913C1008.92 693.685 1009.07 693.561 1009.23 693.473C1008.6 684.741 987.737 683.561 980.414 683.315C980.382 685.693 980.35 688.068 980.318 690.446C980.318 691.256 979.645 691.608 979.068 691.484C978.155 692.347 976.696 692.699 975.591 692.664C974.021 692.611 972.562 691.907 971.601 690.552C971.248 690.446 970.944 690.112 970.944 689.567C970.96 686.943 970.976 684.302 970.976 681.681C963.829 682.033 953.427 681.909 947.514 686.768C937.048 695.34 956.328 698.158 961.473 699.197C969.871 700.868 978.412 701.643 986.939 701.555C994.212 701.466 1004.9 702.293 1008.81 693.913ZM1004.72 311.796C1004.76 311.145 1004.69 310.458 1004.44 309.859C1004.37 309.717 1004.29 309.595 1004.21 309.471C1004.13 309.489 1004.07 309.524 1003.96 309.524C986.904 309.753 969.725 310.036 952.672 309.049C952.672 309.049 952.656 309.031 952.64 309.031C952.624 309.19 952.56 309.348 952.416 309.489C951.614 310.282 950.782 311.125 950.973 312.429C951.102 313.292 951.647 313.873 952.175 314.471C952.334 314.453 952.511 314.453 952.687 314.524C952.8 314.435 952.927 314.364 953.088 314.348C969.82 313.045 986.808 313.662 1003.56 314.647C1004.21 313.855 1004.64 312.905 1004.72 311.796ZM979.628 558.835C979.677 536.179 979.564 513.522 979.388 490.865C979.213 469.019 978.01 446.943 978.844 425.114C976.375 425.185 973.908 425.238 971.44 425.22C974.805 513.223 973.074 601.527 972.899 689.567C972.899 689.637 972.882 689.69 972.866 689.742C973.715 690.411 974.693 690.798 975.783 690.763C976.809 690.727 977.498 690.216 978.298 689.759C978.33 687.559 978.347 685.341 978.379 683.14C978.026 682.877 978.042 682.277 978.395 682.013C978.939 640.96 979.564 599.906 979.628 558.835Z" fill="#222221"/>
<path d="M1036.79 406.031C1038.81 407.545 1039.84 409.903 1038.68 412.544C1038.46 412.349 1038.17 412.263 1037.82 412.385C1018.16 418.705 997.93 422.296 977.432 422.684C956.998 423.071 937.446 419.498 917.574 414.884C917.574 414.743 917.542 414.603 917.445 414.479C916.051 412.56 916.42 410.149 917.911 408.493C955.381 421.907 999.388 418.405 1036.62 406.134C1036.68 406.101 1036.73 406.066 1036.79 406.031Z" fill="#F5E3B5"/>
<path d="M1002.85 316.883C1004.72 348.114 1015.43 381.138 1035.46 404.007C1016.54 410.204 997.032 413.812 977.256 414.376C957.447 414.923 938.601 411.436 919.225 407.633C939.065 382.072 949.482 348.94 953.537 316.002C969.995 316.301 986.407 316.126 1002.85 316.883Z" fill="#F5E3B5"/>
<path d="M1009.23 693.474C1009.07 693.563 1008.92 693.686 1008.81 693.915C1004.9 702.294 994.212 701.466 986.936 701.555C978.411 701.643 969.868 700.868 961.47 699.197C956.325 698.158 937.045 695.342 947.511 686.768C953.424 681.909 963.826 682.033 970.973 681.681C970.973 684.304 970.957 686.945 970.941 689.567C970.941 690.113 971.245 690.447 971.598 690.552C972.559 691.907 974.018 692.611 975.588 692.664C976.694 692.699 978.152 692.347 979.065 691.484C979.642 691.608 980.315 691.256 980.315 690.446C980.347 688.068 980.379 685.693 980.411 683.315C987.737 683.563 1008.6 684.741 1009.23 693.474Z" fill="#585857"/>
<path d="M1004.44 309.859C1004.69 310.457 1004.76 311.143 1004.72 311.796C1004.64 312.905 1004.21 313.855 1003.56 314.647C986.808 313.662 969.82 313.045 953.088 314.348C952.928 314.366 952.8 314.437 952.687 314.524C952.511 314.453 952.334 314.453 952.175 314.471C951.647 313.873 951.101 313.291 950.973 312.429C950.782 311.127 951.614 310.282 952.416 309.489C952.56 309.348 952.624 309.19 952.64 309.031C952.656 309.031 952.672 309.049 952.672 309.049C969.725 310.034 986.904 309.753 1003.96 309.524C1004.07 309.524 1004.13 309.489 1004.21 309.471C1004.29 309.595 1004.37 309.717 1004.44 309.859Z" fill="#F5E3B5"/>
<path d="M979.387 490.866C979.563 513.522 979.675 536.179 979.627 558.835C979.563 599.906 978.938 640.96 978.393 682.012C978.041 682.275 978.025 682.875 978.377 683.139C978.345 685.339 978.329 687.557 978.297 689.758C977.495 690.216 976.806 690.726 975.781 690.761C974.691 690.796 973.714 690.409 972.865 689.74C972.881 689.687 972.897 689.634 972.897 689.565C973.073 601.527 974.804 513.223 971.438 425.218C973.907 425.236 976.374 425.183 978.843 425.112C978.008 446.943 979.211 469.019 979.387 490.866Z" fill="#585857"/>
<path d="M1487.27 633.818C1489.08 642.691 1481.15 653.765 1476.85 660.366C1476.84 660.384 1476.82 660.402 1476.8 660.419C1484.14 669.75 1483.71 688.48 1476.18 696.649C1476.18 696.684 1476.21 696.684 1476.23 696.72C1480.86 710.011 1484.39 735.818 1473.87 746.91C1473.73 747.051 1473.55 747.103 1473.39 747.085C1473.2 747.313 1472.92 747.49 1472.56 747.49C1470.89 747.578 1469.21 747.631 1467.54 747.718C1468.01 749.954 1468.15 752.312 1468.29 754.566C1468.42 756.696 1468.81 759.161 1468.25 761.238C1467.43 764.284 1464.43 764.811 1461.93 765.024C1459.43 765.252 1456.32 764.882 1455.04 762.154C1454.21 760.394 1454.46 758.194 1454.48 756.292C1454.51 753.616 1454.51 750.923 1454.72 748.265C1429.42 749.321 1404.09 750.202 1378.77 750.941C1324.7 752.544 1270.63 753.405 1216.54 753.669C1188.97 753.81 1161.41 753.775 1133.83 753.563C1111.79 753.404 1089.55 753.862 1067.46 752.929C1067.12 755.976 1068.37 759.055 1067.64 762.013C1066.95 764.794 1064.64 765.868 1062.22 765.974C1060.02 766.08 1057.15 765.974 1056.05 763.545C1055.18 761.643 1054.99 759.108 1054.74 757.049C1054.53 755.411 1054.33 753.828 1054.61 752.225C1053.97 752.172 1053.34 752.137 1052.72 752.102C1052.12 752.049 1051.88 751.468 1051.99 750.992C1051.58 751.063 1051.15 750.886 1051.02 750.306C1048.42 738.159 1047.3 725.819 1048.08 713.337C1048.41 708.144 1047.86 698.902 1052.7 695.927C1052.7 695.892 1052.7 695.856 1052.72 695.821C1048.53 687.125 1046.19 674.732 1049.05 665.155C1049.8 662.602 1051.02 660.877 1052.56 659.68C1047.96 653.641 1042.69 645.157 1043.63 637.076C1043.98 634.066 1045.15 631.355 1046.85 629.12C1055.63 613.769 1074.19 603.629 1090.03 601.376C1090.36 601.34 1090.7 601.305 1091.02 601.269C1089.08 587.327 1088.68 567.962 1093.6 554.584C1097.89 542.877 1113.34 546.151 1122.38 546.027C1186.39 545.129 1250.38 544.32 1314.39 543.51C1346.83 543.105 1379.27 542.753 1411.72 542.436C1420.07 542.348 1427.4 541.907 1428.85 552.33C1431.23 569.177 1431.74 586.676 1433.02 603.664C1433.98 603.718 1434.93 603.788 1435.86 603.91C1447.78 605.407 1458.98 611.181 1469.98 616.093C1477.3 619.35 1485.59 622.695 1486.85 632.307C1487.01 632.797 1487.16 633.289 1487.27 633.818ZM1484.87 639.258C1485.46 626.652 1474.35 624.153 1465.33 624.839C1450.67 625.966 1443.87 643.041 1438.81 656.262C1448.76 655.382 1460.94 652.319 1470.44 655.698C1472.27 656.349 1473.86 657.388 1475.25 658.727C1478.39 653.798 1484.58 645.244 1484.87 639.258ZM1473.36 745.166C1481.37 731.962 1477.96 712.527 1474.62 698.144L1474.61 698.161C1443.24 697.493 1411.88 696.806 1380.52 696.348C1271.54 694.728 1162.62 695.644 1053.66 696.859C1048.2 701.489 1049.56 716.206 1049.65 722.985C1049.78 732.033 1050.92 740.959 1052.78 749.779C1052.81 750.007 1052.78 750.202 1052.73 750.359C1083.9 749.232 1115.35 751.01 1146.55 751.187C1255.26 751.767 1363.95 749.409 1472.56 744.831C1472.91 744.814 1473.17 744.953 1473.36 745.166ZM1474.14 695.556C1482.22 687.247 1481.03 662.547 1469.77 658.341C1461.48 655.242 1450.39 658.199 1441.87 658.781C1422.35 660.101 1402.78 660.506 1383.21 660.402C1363.1 660.313 1342.98 659.662 1322.89 658.958C1313.06 658.624 1303.22 658.166 1293.4 657.937C1284.83 657.745 1267.5 656.406 1263.82 667.707C1265.03 673.693 1264.47 680.47 1263.38 686.684C1263.69 688.657 1263.97 690.627 1264.49 692.564C1334.38 692.671 1404.27 693.638 1474.11 695.593C1474.13 695.574 1474.13 695.556 1474.14 695.556ZM1481.32 625.545C1477.09 620.809 1470.09 618.715 1464.59 616.267C1457.64 613.169 1450.68 609.893 1443.39 607.887C1425.73 602.993 1403 608.151 1401.22 631.952C1401.21 632.093 1401.18 632.198 1401.13 632.304C1406.37 633.712 1410.95 636.969 1415.58 640.068C1423.02 645.049 1430.31 650.26 1437.52 655.629C1442.32 636.986 1453.5 620.227 1472.73 622.709C1475.65 623.079 1478.73 623.96 1481.32 625.545ZM1464.58 762.347C1467 760.939 1466.42 757.523 1466.29 755.252C1466.13 752.77 1465.73 750.287 1465.6 747.787C1462.41 747.929 1459.22 748.069 1456.03 748.21C1456.29 751.115 1456.26 754.055 1456.29 756.995C1456.32 759.071 1455.95 761.553 1458.44 762.662C1459.3 763.05 1460.57 762.979 1461.5 762.908C1462.32 762.857 1463.77 762.804 1464.58 762.347ZM1431.02 603.626C1430.26 595.158 1429.56 586.708 1428.89 578.24C1428.5 573.628 1428.13 569.033 1427.75 564.421C1427.47 560.901 1427.95 555.601 1426.77 552.327C1424.35 545.619 1420.5 544.828 1414.91 544.862C1411.19 544.897 1407.46 544.986 1403.74 545.039C1395.76 545.145 1387.78 545.249 1379.81 545.373C1325.57 546.13 1271.32 546.781 1217.07 547.397C1189.6 547.713 1162.13 548.03 1134.66 548.329C1128.01 548.4 1121.36 548.471 1114.72 548.54C1107.34 548.628 1097.56 547.73 1095.03 557.43C1091.34 571.514 1092.09 586.689 1092.33 601.159C1092.33 601.159 1092.33 601.159 1092.33 601.176C1110.19 600.348 1114.71 621.28 1115.6 638.004C1120.33 636.12 1125.44 634.922 1131.18 634.641C1151.87 633.656 1172.64 633.62 1193.35 633.339C1213.17 633.058 1234.12 630.91 1253.82 633.62C1259.26 634.36 1263.82 635.099 1265.67 640.873C1271.62 631.473 1287.21 632.952 1296.17 632.6C1313.16 631.949 1330.15 632.81 1347.13 633.162C1355.89 633.339 1364.64 633.408 1373.37 633.074C1381.4 632.775 1389.89 630.856 1397.87 631.666C1398.52 631.736 1399.14 631.859 1399.75 631.982C1399.75 631.965 1399.75 631.947 1399.75 631.947C1398.92 612.833 1415.79 603.732 1431.02 603.626ZM1434.62 656.528C1429.27 652.567 1423.89 648.675 1418.41 644.927C1410.95 639.839 1403.85 634.135 1394.75 634.101C1380.44 634.048 1366.14 635.95 1351.77 635.737C1337.34 635.509 1322.94 634.823 1308.51 634.84C1296.2 634.858 1275.39 631.989 1266.12 642.533C1267.5 648.431 1267.37 655.226 1265.93 661.159C1275.69 651.283 1302.52 655.859 1311.78 656.16C1339.28 657.092 1366.8 657.99 1394.32 657.78C1407.76 657.69 1421.21 657.302 1434.62 656.528ZM1263.69 663.499C1264.89 658.905 1265.05 654.416 1264.74 649.698C1264.18 641.389 1261.81 637.075 1253.67 636.019C1246.11 635.051 1238.35 635.596 1230.77 635.684C1214.65 635.861 1198.54 636.054 1182.43 636.282C1166.31 636.528 1150.21 636.687 1134.1 637.11C1124.98 637.356 1116.76 638.43 1108.7 643.448C1102.7 647.163 1097.35 652.144 1092.16 657.092C1113.54 656.669 1134.9 656.264 1156.28 655.894C1184.24 655.419 1212.21 654.785 1240.16 655.454C1247.92 655.629 1258.61 653.818 1262.5 663.218C1262.77 663.904 1263 664.608 1263.22 665.33C1263.38 664.925 1263.56 664.537 1263.75 664.15C1263.65 663.973 1263.62 663.763 1263.69 663.499ZM1263.01 692.563C1262.87 691.965 1262.73 691.348 1262.6 690.732C1262.47 691.348 1262.34 691.965 1262.2 692.563C1262.47 692.563 1262.74 692.563 1263.01 692.563ZM1259.95 692.563C1261.27 686.419 1262.07 680.24 1261.96 673.92C1261.92 671.385 1261.88 668.62 1261.17 666.174C1259.5 660.488 1255.53 658.974 1250.58 658.146C1240.3 656.457 1228.88 657.653 1218.49 657.653C1197.75 657.653 1177.02 658.058 1156.28 658.41C1134.66 658.762 1113.02 659.079 1091.4 659.395C1086.13 659.484 1080.86 659.554 1075.57 659.641C1070.67 659.712 1062.8 658.145 1058.17 659.852C1044.94 664.729 1050.15 684.198 1053.89 694.937C1085.12 694.038 1116.39 693.617 1147.64 693.212C1185.06 692.74 1222.5 692.527 1259.95 692.563ZM1113.66 638.817C1113.54 638.642 1113.44 638.43 1113.44 638.166C1112.97 629.346 1111.81 618.556 1107.13 611.002C1100.94 601.003 1090.33 602.94 1081.37 606.09C1070.36 609.98 1060.17 615.72 1052.2 624.522C1053.61 623.765 1055.1 623.22 1056.66 622.902C1074.26 619.486 1086.52 640.77 1089.8 657.073C1097.51 649.222 1104.96 642.779 1113.66 638.817ZM1088.58 657.143C1084.72 645.102 1078.71 631.494 1067.2 626.688C1059.58 623.502 1048.77 625.437 1046.24 635.507C1044.24 643.482 1050.01 652.601 1054.5 658.551C1059.16 656.439 1065.57 657.584 1070.83 657.478C1076.74 657.355 1082.65 657.267 1088.58 657.143ZM1063.9 763.738C1067.48 762.206 1065.12 756.556 1065.54 752.841C1062.22 752.7 1058.92 752.507 1055.62 752.278C1056.39 754.937 1056.37 757.93 1056.95 760.64C1057.4 762.699 1058.37 763.932 1060.43 764.074C1061.58 764.16 1062.81 764.196 1063.9 763.738Z" fill="#222221"/>
<path d="M1465.33 624.841C1474.35 624.154 1485.46 626.654 1484.87 639.259C1484.58 645.245 1478.39 653.8 1475.25 658.73C1473.86 657.393 1472.27 656.353 1470.44 655.702C1460.94 652.321 1448.76 655.385 1438.81 656.266C1443.87 643.043 1450.67 625.966 1465.33 624.841Z" fill="#F1D78E"/>
<path d="M1474.62 698.144C1477.96 712.527 1481.37 731.962 1473.36 745.166C1473.17 744.955 1472.91 744.814 1472.56 744.831C1363.95 749.409 1255.26 751.767 1146.55 751.187C1115.35 751.012 1083.9 749.232 1052.73 750.359C1052.78 750.202 1052.81 750.007 1052.78 749.779C1050.92 740.959 1049.79 732.033 1049.66 722.985C1049.56 716.208 1048.2 701.49 1053.66 696.859C1162.63 695.644 1271.54 694.73 1380.52 696.348C1411.88 696.806 1443.25 697.493 1474.61 698.162L1474.62 698.144Z" fill="#F1D78E"/>
<path d="M1469.77 658.341C1481.03 662.548 1482.22 687.247 1474.14 695.556C1474.13 695.556 1474.13 695.574 1474.11 695.591C1404.27 693.637 1334.38 692.669 1264.49 692.563C1263.97 690.626 1263.69 688.655 1263.38 686.683C1264.47 680.469 1265.03 673.69 1263.81 667.706C1267.5 656.404 1284.82 657.741 1293.4 657.936C1303.22 658.164 1313.06 658.622 1322.89 658.957C1342.98 659.661 1363.1 660.312 1383.21 660.4C1402.78 660.506 1422.35 660.101 1441.87 658.78C1450.39 658.199 1461.48 655.242 1469.77 658.341Z" fill="#F1D78E"/>
<path d="M1464.59 616.267C1470.09 618.713 1477.09 620.809 1481.32 625.545C1478.73 623.96 1475.65 623.081 1472.73 622.711C1453.5 620.229 1442.32 636.988 1437.53 655.631C1430.31 650.262 1423.02 645.051 1415.59 640.069C1410.95 636.97 1406.37 633.714 1401.13 632.306C1401.18 632.199 1401.21 632.095 1401.23 631.953C1403 608.152 1425.73 602.994 1443.39 607.889C1450.68 609.893 1457.64 613.168 1464.59 616.267Z" fill="#F1D78E"/>
<path d="M1466.29 755.252C1466.42 757.524 1467 760.938 1464.58 762.347C1463.77 762.805 1462.32 762.858 1461.5 762.91C1460.57 762.981 1459.3 763.051 1458.44 762.664C1455.95 761.555 1456.32 759.073 1456.29 756.996C1456.26 754.056 1456.29 751.116 1456.03 748.212C1459.22 748.07 1462.41 747.93 1465.6 747.789C1465.73 750.289 1466.13 752.77 1466.29 755.252Z" fill="#585857"/>
<path d="M1428.89 578.242C1429.56 586.709 1430.26 595.16 1431.02 603.628C1415.79 603.734 1398.92 612.835 1399.75 631.953C1399.75 631.953 1399.75 631.971 1399.75 631.989C1399.14 631.865 1398.52 631.743 1397.88 631.672C1389.89 630.862 1381.4 632.781 1373.37 633.08C1364.64 633.415 1355.89 633.344 1347.14 633.169C1330.15 632.817 1313.16 631.953 1296.17 632.606C1287.21 632.958 1271.62 631.479 1265.68 640.88C1263.82 635.106 1259.26 634.366 1253.82 633.627C1234.12 630.915 1213.17 633.064 1193.35 633.346C1172.64 633.627 1151.87 633.662 1131.18 634.648C1125.45 634.929 1120.33 636.126 1115.61 638.01C1114.71 621.287 1110.19 600.355 1092.34 601.183C1092.34 601.165 1092.34 601.165 1092.34 601.165C1092.1 586.693 1091.34 571.519 1095.03 557.437C1097.56 547.738 1107.34 548.635 1114.73 548.546C1121.36 548.475 1128.01 548.405 1134.66 548.336C1162.13 548.037 1189.6 547.72 1217.07 547.403C1271.32 546.788 1325.57 546.135 1379.82 545.38C1387.78 545.256 1395.76 545.151 1403.74 545.045C1407.46 544.992 1411.2 544.904 1414.91 544.868C1420.5 544.833 1424.35 545.625 1426.77 552.333C1427.96 555.608 1427.48 560.906 1427.75 564.427C1428.13 569.034 1428.5 573.628 1428.89 578.242Z" fill="#F1D78E"/>
<path d="M1418.4 644.927C1423.89 648.677 1429.27 652.567 1434.62 656.528C1421.21 657.303 1407.76 657.69 1394.32 657.778C1366.8 657.989 1339.28 657.092 1311.78 656.158C1302.52 655.859 1275.69 651.281 1265.93 661.157C1267.37 655.224 1267.5 648.43 1266.12 642.532C1275.38 631.987 1296.2 634.857 1308.51 634.839C1322.94 634.821 1337.34 635.508 1351.77 635.736C1366.14 635.946 1380.44 634.046 1394.75 634.099C1403.85 634.135 1410.95 639.84 1418.4 644.927Z" fill="#F1D78E"/>
<path d="M1264.74 649.698C1265.05 654.416 1264.89 658.905 1263.69 663.499C1263.62 663.763 1263.65 663.975 1263.75 664.15C1263.56 664.537 1263.38 664.925 1263.22 665.33C1263 664.608 1262.77 663.904 1262.5 663.218C1258.61 653.818 1247.92 655.631 1240.16 655.454C1212.21 654.785 1184.25 655.419 1156.28 655.894C1134.9 656.264 1113.54 656.669 1092.16 657.092C1097.35 652.146 1102.7 647.163 1108.7 643.448C1116.76 638.431 1124.98 637.358 1134.1 637.11C1150.21 636.687 1166.31 636.53 1182.44 636.282C1198.54 636.054 1214.65 635.86 1230.77 635.684C1238.35 635.596 1246.11 635.051 1253.67 636.019C1261.81 637.075 1264.18 641.387 1264.74 649.698Z" fill="#F1D78E"/>
<path d="M1261.96 673.92C1262.07 680.24 1261.27 686.419 1259.95 692.563C1222.5 692.528 1185.06 692.738 1147.64 693.214C1116.39 693.619 1085.12 694.042 1053.89 694.939C1050.15 684.199 1044.94 664.73 1058.16 659.854C1062.8 658.146 1070.67 659.712 1075.57 659.643C1080.86 659.555 1086.13 659.484 1091.4 659.397C1113.02 659.08 1134.66 658.764 1156.28 658.412C1177.01 658.06 1197.75 657.655 1218.49 657.655C1228.88 657.655 1240.3 656.457 1250.58 658.148C1255.53 658.976 1259.5 660.49 1261.17 666.175C1261.88 668.622 1261.92 671.385 1261.96 673.92Z" fill="#F1D78E"/>
<path d="M1113.44 638.166C1113.44 638.43 1113.54 638.642 1113.66 638.817C1104.96 642.778 1097.51 649.22 1089.8 657.073C1086.52 640.77 1074.26 619.488 1056.66 622.902C1055.11 623.219 1053.61 623.765 1052.2 624.522C1060.17 615.72 1070.36 609.982 1081.37 606.09C1090.33 602.94 1100.94 601.003 1107.13 611.002C1111.81 618.556 1112.97 629.346 1113.44 638.166Z" fill="#F1D78E"/>
<path d="M1067.2 626.688C1078.71 631.494 1084.72 645.102 1088.58 657.143C1082.65 657.267 1076.74 657.354 1070.83 657.478C1065.57 657.584 1059.16 656.439 1054.5 658.551C1050.01 652.601 1044.24 643.482 1046.24 635.507C1048.77 625.439 1059.58 623.502 1067.2 626.688Z" fill="#F1D78E"/>
<path d="M1065.54 752.841C1065.12 756.556 1067.48 762.206 1063.9 763.738C1062.81 764.196 1061.58 764.161 1060.43 764.072C1058.37 763.931 1057.4 762.699 1056.95 760.639C1056.37 757.929 1056.39 754.936 1055.62 752.277C1058.92 752.507 1062.22 752.7 1065.54 752.841Z" fill="#585857"/>
<path d="M1422.16 590.498C1425.32 594.178 1422.72 600.199 1421.57 604.142C1418.88 613.332 1415.99 622.557 1412.61 631.481C1411.33 634.844 1410.3 637.713 1406.81 638.698C1401.33 640.248 1392.9 637.062 1387.06 635.741C1387.06 636.657 1387.06 637.589 1387.06 638.504C1387.03 640.986 1387.62 645.07 1386.25 647.447C1384.07 651.198 1378.73 650.352 1375.36 650.44C1365.28 650.704 1355.22 650.493 1345.17 649.878C1344.51 649.825 1344.19 649.245 1344.19 648.68C1344.18 648.627 1344.15 648.61 1344.15 648.557C1342.98 637.149 1342.48 625.601 1341.98 614.122C1341.85 610.866 1341.02 606.323 1343.92 604.158C1346.28 602.416 1350.75 603.084 1353.3 602.978C1357.8 602.803 1362.29 602.697 1366.79 602.662C1366.95 602.662 1367.14 602.644 1367.3 602.644C1368.5 596.835 1369.75 587.839 1373.6 583.578C1376.5 580.339 1380.51 581.185 1384.27 581.641C1392.02 582.575 1399.74 583.983 1407.37 585.743C1411.55 586.714 1419.05 586.872 1422.16 590.498ZM1420.86 598.897C1421.28 590.641 1418.28 590.852 1413.86 589.69C1404.13 587.084 1394.23 585.096 1384.28 583.845C1380.77 583.405 1379.98 582.93 1376.84 584.848C1373.52 586.872 1373.27 588.968 1372.08 592.647C1370.99 595.957 1369.98 599.284 1368.76 602.559C1373.65 602.154 1381.49 600.921 1384.74 604.126C1388.38 607.717 1386.89 618.544 1386.98 623.015C1387.06 626.464 1387.08 629.933 1387.08 633.384C1391.37 634.159 1395.67 634.951 1399.96 635.691C1403.46 637.663 1406.09 636.729 1407.83 632.892C1409.77 631.695 1411.02 630.023 1411.58 627.84C1412.74 625.533 1413.38 622.77 1414.21 620.306C1415.91 615.254 1417.54 610.167 1419.07 605.061C1419.61 603.227 1420.77 600.815 1420.86 598.897ZM1384.79 643.681C1385.64 641.78 1385.75 638.664 1385.59 635.39C1384.8 635.091 1384.88 633.964 1385.49 633.453C1385.27 630.161 1384.88 626.922 1384.84 624.739C1384.74 618.93 1386.45 607.575 1380.29 604.987C1375.59 603.015 1367.35 604.83 1362.29 604.899C1359.79 604.952 1357.29 605.005 1354.8 605.074C1350.57 605.216 1348.25 604.335 1345.49 608.032C1342.09 612.61 1344.18 622.132 1344.42 627.908C1344.69 634.492 1344.98 641.093 1345.01 647.677C1345.06 647.677 1345.11 647.66 1345.17 647.66C1351.52 647.923 1357.88 648.135 1364.23 648.153C1369.92 648.171 1381.68 650.653 1384.79 643.681Z" fill="#222221"/>
<path d="M1413.86 589.69C1418.28 590.852 1421.28 590.64 1420.86 598.897C1420.77 600.816 1419.61 603.227 1419.07 605.058C1417.55 610.163 1415.91 615.251 1414.21 620.303C1413.38 622.767 1412.74 625.532 1411.58 627.837C1411.02 630.02 1409.77 631.691 1407.83 632.889C1406.09 636.728 1403.46 637.66 1399.97 635.688C1395.67 634.948 1391.38 634.156 1387.08 633.381C1387.08 629.93 1387.06 626.463 1386.98 623.011C1386.89 618.54 1388.38 607.714 1384.74 604.123C1381.49 600.919 1373.65 602.15 1368.76 602.555C1369.98 599.281 1370.99 595.954 1372.08 592.644C1373.27 588.965 1373.52 586.87 1376.84 584.845C1379.98 582.926 1380.77 583.401 1384.28 583.842C1394.23 585.094 1404.13 587.084 1413.86 589.69Z" fill="#DA9A36"/>
<path d="M1385.59 635.39C1385.75 638.664 1385.64 641.781 1384.79 643.681C1381.68 650.653 1369.92 648.171 1364.23 648.153C1357.88 648.135 1351.52 647.925 1345.17 647.66C1345.11 647.66 1345.06 647.677 1345.01 647.677C1344.98 641.093 1344.69 634.492 1344.42 627.908C1344.18 622.134 1342.09 612.61 1345.49 608.032C1348.25 604.335 1350.57 605.216 1354.8 605.074C1357.29 605.003 1359.79 604.95 1362.29 604.899C1367.35 604.828 1375.59 603.015 1380.29 604.987C1386.46 607.575 1384.74 618.93 1384.84 624.739C1384.89 626.922 1385.27 630.161 1385.49 633.453C1384.88 633.964 1384.8 635.091 1385.59 635.39Z" fill="#7E5279"/>
<path d="M1182.37 629.594C1184.5 635.58 1189.55 644.469 1189.32 650.966C1189.16 655.613 1185.81 657.216 1182.3 658.588C1175.75 661.141 1167.34 664.803 1160.28 664.803C1156.07 664.785 1153.89 662.461 1152.22 658.307C1151.07 655.456 1150.09 652.427 1149.21 649.347C1140 650.702 1120.65 651.812 1115.96 641.637C1113.21 635.721 1113.38 625.987 1112.94 619.525C1112.61 614.314 1110.41 603.645 1113.07 599.034C1115.3 595.179 1121.21 596.147 1124.64 596.005C1133.79 595.618 1142.99 595.565 1152.14 596.094C1155.41 596.286 1158.68 595.865 1160.4 599.439C1161.61 602.009 1161.02 605.934 1161.07 608.646C1161.18 613.54 1161.28 618.433 1161.37 623.328C1166.23 621.373 1171.74 619.42 1175.48 620.054C1180.11 620.827 1180.83 625.262 1182.37 629.594ZM1186.89 648.958C1187.19 645.737 1183.52 639.346 1182.43 636.284C1180.48 630.756 1178.12 623.468 1172.1 623.098C1168.34 622.87 1162.96 625.633 1159.42 626.76C1155.68 627.957 1148.41 629.242 1146.5 633.45C1146.47 633.521 1146.42 633.574 1146.37 633.625C1147.91 638.184 1149.34 642.762 1150.72 647.391C1152.8 654.38 1153.66 662.197 1162.09 662.583C1165.35 662.742 1169.84 660.312 1172.94 659.326C1174.85 658.711 1177 658.27 1178.82 657.407C1181.63 656.052 1186.54 652.848 1186.89 648.958ZM1159.23 624.188C1159.11 618.554 1159.63 612.446 1158.87 606.9C1157.62 597.921 1153.23 598.45 1146.02 598.239C1140.94 598.098 1135.85 598.08 1130.75 598.186C1128.71 598.239 1126.68 598.292 1124.64 598.379C1120.2 598.574 1119.14 597.693 1116.56 601.935C1113.54 606.934 1114.59 613.606 1114.96 619.522C1115.3 624.839 1114.99 631.722 1116.8 636.668C1121.44 649.325 1137.88 647.987 1148.78 647.777C1147.45 642.9 1146.34 637.901 1145.16 633.183C1145.11 632.955 1145.17 632.796 1145.27 632.672C1146.42 628.094 1150.91 627.25 1154.68 625.947C1155.97 625.509 1157.53 624.874 1159.23 624.188Z" fill="#222221"/>
<path d="M1182.43 636.282C1183.52 639.346 1187.19 645.735 1186.89 648.957C1186.54 652.847 1181.63 656.052 1178.83 657.407C1177 658.27 1174.85 658.709 1172.95 659.326C1169.84 660.312 1165.35 662.742 1162.1 662.583C1153.67 662.195 1152.8 654.38 1150.72 647.391C1149.34 642.762 1147.91 638.184 1146.38 633.625C1146.42 633.572 1146.47 633.519 1146.5 633.45C1148.41 629.242 1155.69 627.957 1159.42 626.76C1162.96 625.633 1168.35 622.87 1172.1 623.098C1178.12 623.466 1180.48 630.754 1182.43 636.282Z" fill="#DA9A36"/>
<path d="M1158.88 606.902C1159.63 612.447 1159.12 618.556 1159.23 624.19C1157.53 624.876 1155.97 625.509 1154.68 625.95C1150.91 627.252 1146.42 628.097 1145.27 632.675C1145.17 632.799 1145.11 632.957 1145.16 633.186C1146.34 637.904 1147.45 642.903 1148.78 647.78C1137.88 647.991 1121.44 649.33 1116.81 636.671C1114.99 631.725 1115.3 624.841 1114.96 619.525C1114.59 613.61 1113.54 606.937 1116.57 601.938C1119.15 597.696 1120.2 598.575 1124.64 598.383C1126.68 598.294 1128.71 598.241 1130.75 598.19C1135.85 598.084 1140.94 598.101 1146.02 598.243C1153.23 598.452 1157.62 597.923 1158.88 606.902Z" fill="#7E5279"/>
</g>
<defs>
<clipPath id="clip0_1_3">
<rect width="1512" height="982" fill="white"/>
</clipPath>
</defs>
</svg>
